<svg width="21" height="19" viewBox="0 0 21 19" fill="none" xmlns="http://www.w3.org/2000/svg">
<rect width="21" height="19" rx="1" fill="url(#paint0_linear_9_3)"/>
<g filter="url(#filter0_i_9_3)">
<path d="M7.4929 7.78267C7.45881 7.43892 7.3125 7.17187 7.05398 6.98153C6.79545 6.79119 6.4446 6.69602 6.00142 6.69602C5.70028 6.69602 5.44602 6.73864 5.23864 6.82386C5.03125 6.90625 4.87216 7.02131 4.76136 7.16903C4.65341 7.31676 4.59943 7.48438 4.59943 7.67188C4.59375 7.82812 4.62642 7.96449 4.69744 8.08097C4.77131 8.19744 4.87216 8.2983 5 8.38352C5.12784 8.46591 5.27557 8.53835 5.44318 8.60085C5.6108 8.66051 5.78977 8.71165 5.98011 8.75426L6.7642 8.94176C7.14489 9.02699 7.49432 9.14062 7.8125 9.28267C8.13068 9.42472 8.40625 9.59943 8.6392 9.80682C8.87216 10.0142 9.05256 10.2585 9.1804 10.5398C9.31108 10.821 9.37784 11.1435 9.38068 11.5071C9.37784 12.0412 9.24148 12.5043 8.97159 12.8963C8.70455 13.2855 8.31818 13.5881 7.8125 13.804C7.30966 14.017 6.70313 14.1236 5.9929 14.1236C5.28835 14.1236 4.67472 14.0156 4.15199 13.7997C3.6321 13.5838 3.22585 13.2642 2.93324 12.8409C2.64347 12.4148 2.49148 11.8878 2.47727 11.2599H4.26278C4.28267 11.5526 4.36648 11.7969 4.5142 11.9929C4.66477 12.1861 4.86506 12.3324 5.11506 12.4318C5.3679 12.5284 5.65341 12.5767 5.97159 12.5767C6.28409 12.5767 6.5554 12.5312 6.78551 12.4403C7.01847 12.3494 7.19886 12.223 7.3267 12.0611C7.45455 11.8991 7.51847 11.7131 7.51847 11.5028C7.51847 11.3068 7.46023 11.142 7.34375 11.0085C7.23011 10.875 7.0625 10.7614 6.84091 10.6676C6.62216 10.5739 6.35369 10.4886 6.03551 10.4119L5.08523 10.1733C4.34943 9.99432 3.76847 9.71449 3.34233 9.33381C2.91619 8.95312 2.70455 8.44034 2.70739 7.79545C2.70455 7.26705 2.84517 6.8054 3.12926 6.41051C3.41619 6.01562 3.80966 5.70739 4.30966 5.4858C4.80966 5.2642 5.37784 5.15341 6.0142 5.15341C6.66193 5.15341 7.22727 5.2642 7.71023 5.4858C8.19602 5.70739 8.57386 6.01562 8.84375 6.41051C9.11364 6.8054 9.25284 7.26278 9.26136 7.78267H7.4929ZM17.9215 5.27273V14H16.3278L12.5309 8.5071H12.467V14H10.6218V5.27273H12.2411L16.0082 10.7614H16.0849V5.27273H17.9215Z" fill="black"/>
</g>
<defs>
<filter id="filter0_i_9_3" x="2.47727" y="5.15341" width="15.4442" height="8.97017" filterUnits="userSpaceOnUse" color-interpolation-filters="sRGB">
<feFlood flood-opacity="0" result="BackgroundImageFix"/>
<feBlend mode="normal" in="SourceGraphic" in2="BackgroundImageFix" result="shape"/>
<feColorMatrix in="SourceAlpha" type="matrix" values="0 0 0 0 0 0 0 0 0 0 0 0 0 0 0 0 0 0 127 0" result="hardAlpha"/>
<feOffset dy="-0.5"/>
<feComposite in2="hardAlpha" operator="arithmetic" k2="-1" k3="1"/>
<feColorMatrix type="matrix" values="0 0 0 0 1 0 0 0 0 1 0 0 0 0 1 0 0 0 1 0"/>
<feBlend mode="normal" in2="shape" result="effect1_innerShadow_9_3"/>
</filter>
<linearGradient id="paint0_linear_9_3" x1="10.5" y1="0" x2="10.5" y2="19" gradientUnits="userSpaceOnUse">
<stop stop-color="#EAEAEA"/>
<stop offset="1" stop-color="#979797"/>
</linearGradient>
</defs>
</svg>
