<svg width="100" height="100" viewBox="0 0 100 100" fill="none" xmlns="http://www.w3.org/2000/svg">
<g clip-path="url(#clip0_18_2)">
<rect width="100" height="100" rx="2" fill="#CCCCCC"/>
<path d="M43.8931 100C36.0051 100 28.626 98.9019 21.7557 96.7056C14.8855 94.729 9.03308 91.8738 4.19847 88.1402C2.92621 85.7243 1.9084 81.6612 1.14504 75.9509C0.636132 70.2407 0.254453 65.5187 0 61.785C0 59.8084 1.65394 58.8201 4.96183 58.8201C5.97964 58.8201 6.87023 59.0397 7.63359 59.479C8.6514 59.6986 9.28753 60.2477 9.54198 61.1262C12.8499 71.8879 18.0662 79.5748 25.1908 84.1869C32.57 88.7991 39.9491 91.1051 47.3282 91.1051C54.7074 91.1051 60.9415 89.0187 66.0305 84.8458C71.374 80.4533 74.0458 75.0724 74.0458 68.7033C74.0458 62.7734 71.7557 57.722 67.1756 53.5491C62.5954 49.1565 54.5801 43.8855 43.1298 37.736C34.4784 33.1238 27.4809 28.7313 22.1374 24.5584C16.7939 20.3855 12.8499 16.1028 10.3053 11.7103C8.01527 7.31776 6.87023 2.37617 6.87023 -3.11449C6.87023 -10.1425 8.77863 -16.5117 12.5954 -22.222C16.4122 -27.9322 22.1374 -32.4346 29.771 -35.729C37.4046 -39.243 46.9466 -41 58.3969 -41C66.0305 -41 72.3919 -40.3411 77.4809 -39.0234C82.57 -37.7056 86.3868 -36.278 88.9313 -34.7406C90.9669 -32.3248 92.6209 -28.4813 93.8931 -23.2103C95.4198 -18.1589 96.1832 -13.3271 96.1832 -8.71495C96.1832 -7.17757 94.9109 -6.40888 92.3664 -6.40888C90.8397 -6.40888 89.313 -6.6285 87.7862 -7.06775C86.514 -7.72663 85.6234 -8.49532 85.1145 -9.37383C81.8066 -16.6215 77.6081 -22.1121 72.5191 -25.8458C67.6845 -29.7991 61.5776 -31.7757 54.1985 -31.7757C47.8371 -31.7757 42.112 -30.1285 37.0229 -26.8341C32.1883 -23.5397 29.771 -18.7079 29.771 -12.3388C29.771 -7.28738 31.5522 -2.78504 35.1145 1.16823C38.9313 5.1215 45.9288 9.62384 56.1069 14.6752C70.8651 21.9229 81.8066 28.7313 88.9313 35.1005C96.3104 41.25 100 49.486 100 59.8084C100 71.6682 94.7837 81.3318 84.3511 88.7991C73.9186 96.2664 60.4326 100 43.8931 100Z" fill="black"/>
</g>
<defs>
<clipPath id="clip0_18_2">
<rect width="100" height="100" rx="2" fill="white"/>
</clipPath>
</defs>
</svg>
