<svg width="100" height="100" viewBox="0 0 100 100" fill="none" xmlns="http://www.w3.org/2000/svg">
<g clip-path="url(#clip0_18_21)">
<rect width="100" height="100" rx="2" fill="#CCCCCC"/>
<path d="M43.8931 141C36.0051 141 28.626 139.902 21.7557 137.706C14.8855 135.729 9.03308 132.874 4.19847 129.14C2.92621 126.724 1.9084 122.661 1.14504 116.951C0.636132 111.241 0.254453 106.519 0 102.785C0 100.808 1.65394 99.8201 4.96183 99.8201C5.97964 99.8201 6.87023 100.04 7.63359 100.479C8.6514 100.699 9.28753 101.248 9.54198 102.126C12.8499 112.888 18.0662 120.575 25.1908 125.187C32.57 129.799 39.9491 132.105 47.3282 132.105C54.7074 132.105 60.9415 130.019 66.0305 125.846C71.374 121.453 74.0458 116.072 74.0458 109.703C74.0458 103.773 71.7557 98.722 67.1756 94.5491C62.5954 90.1565 54.5801 84.8855 43.1298 78.736C34.4784 74.1238 27.4809 69.7313 22.1374 65.5584C16.7939 61.3855 12.8499 57.1028 10.3053 52.7103C8.01527 48.3178 6.87023 43.3762 6.87023 37.8855C6.87023 30.8575 8.77863 24.4883 12.5954 18.778C16.4122 13.0678 22.1374 8.56542 29.771 5.27103C37.4046 1.75701 46.9466 0 58.3969 0C66.0305 0 72.3919 0.65888 77.4809 1.97664C82.57 3.2944 86.3868 4.72197 88.9313 6.25935C90.9669 8.67524 92.6209 12.5187 93.8931 17.7897C95.4198 22.8411 96.1832 27.6729 96.1832 32.285C96.1832 33.8224 94.9109 34.5911 92.3664 34.5911C90.8397 34.5911 89.313 34.3715 87.7862 33.9322C86.514 33.2734 85.6234 32.5047 85.1145 31.6262C81.8066 24.3785 77.6081 18.8879 72.5191 15.1542C67.6845 11.2009 61.5776 9.22431 54.1985 9.22431C47.8371 9.22431 42.112 10.8715 37.0229 14.1659C32.1883 17.4603 29.771 22.2921 29.771 28.6612C29.771 33.7126 31.5522 38.215 35.1145 42.1682C38.9313 46.1215 45.9288 50.6238 56.1069 55.6752C70.8651 62.9229 81.8066 69.7313 88.9313 76.1005C96.3104 82.25 100 90.486 100 100.808C100 112.668 94.7837 122.332 84.3511 129.799C73.9186 137.266 60.4326 141 43.8931 141Z" fill="black"/>
</g>
<defs>
<clipPath id="clip0_18_21">
<rect width="100" height="100" rx="2" fill="white"/>
</clipPath>
</defs>
</svg>
