<svg width="100" height="100" viewBox="0 0 100 100" fill="none" xmlns="http://www.w3.org/2000/svg">
<path d="M11.4585 28.2771C27.4417 28.2771 42.7702 34.6264 54.072 45.9282C65.3738 57.23 71.7231 72.5586 71.7231 88.5417H88.5418C88.5418 78.419 86.548 68.3954 82.6742 59.0432C78.8004 49.691 73.1225 41.1934 65.9646 34.0356C58.8068 26.8777 50.3092 21.1998 40.957 17.326C31.6048 13.4522 21.5812 11.4584 11.4585 11.4584V28.2771Z" stroke="currentColor" stroke-width="2" stroke-linecap="round"/>
<path d="M61.9127 88.5417H46.496C46.496 79.2492 42.8046 70.3372 36.2337 63.7664C29.6629 57.1956 20.751 53.5042 11.4585 53.5042V38.0875C18.0842 38.0875 24.6451 39.3926 30.7665 41.9281C36.8878 44.4637 42.4499 48.1801 47.135 52.8652C51.8201 57.5503 55.5365 63.1123 58.0721 69.2337C60.6076 75.3551 61.9127 81.916 61.9127 88.5417Z" stroke="currentColor" stroke-width="2" stroke-linecap="round"/>
<path d="M21.3459 88.5417C26.8054 88.5417 31.2313 84.1159 31.2313 78.6563C31.2313 73.1967 26.8054 68.7709 21.3459 68.7709C15.8863 68.7709 11.4604 73.1967 11.4604 78.6563C11.4604 84.1159 15.8863 88.5417 21.3459 88.5417Z" stroke="currentColor" stroke-width="2" stroke-linecap="round" stroke-linejoin="round"/>
</svg>
