<svg width="100" height="100" viewBox="0 0 100 100" fill="none" xmlns="http://www.w3.org/2000/svg">
<g clip-path="url(#clip0_18_3)">
<circle cx="49.641" cy="49.641" r="39" transform="rotate(30 49.641 49.641)" stroke="currentColor" stroke-width="2"/>
<circle cx="49.6413" cy="49.6411" r="39" transform="rotate(-45 49.6413 49.6411)" stroke="currentColor" stroke-width="2"/>
<path d="M69.1409 15.866C74.7132 19.0831 77.8012 25.6876 78.0929 34.0199C78.3841 42.3356 75.8696 52.2115 70.4255 61.641C64.9814 71.0705 57.6858 78.186 50.3387 82.0917C42.9768 86.0052 35.7132 86.6331 30.1409 83.416C24.5686 80.1988 21.4806 73.5943 21.1888 65.262C20.8976 56.9464 23.4121 47.0705 28.8563 37.641C34.3004 28.2115 41.5959 21.0959 48.9431 17.1902C56.3049 13.2767 63.5686 12.6488 69.1409 15.866Z" stroke="currentColor" stroke-width="2"/>
<path d="M22.0641 22.0637C22.6361 21.4917 23.8642 21.2251 26.0832 21.7955C28.2269 22.3464 30.9652 23.6014 34.1268 25.4984C40.4364 29.2841 48.2352 35.5068 56.0053 43.2769C63.7753 51.047 69.998 58.8458 73.7838 65.1554C75.6808 68.317 76.9357 71.0553 77.4867 73.199C78.057 75.418 77.7904 76.6461 77.2185 77.218C76.6465 77.79 75.4184 78.0566 73.1994 77.4863C71.0557 76.9353 68.3174 75.6803 65.1558 73.7834C58.8462 69.9976 51.0474 63.7749 43.2773 56.0048C35.5072 48.2348 29.2845 40.436 25.4988 34.1264C23.6018 30.9648 22.3468 28.2264 21.7959 26.0828C21.2256 23.8638 21.4922 22.6357 22.0641 22.0637Z" stroke="currentColor" stroke-width="2"/>
</g>
<defs>
<clipPath id="clip0_18_3">
<rect width="100" height="100" fill="white"/>
</clipPath>
</defs>
</svg>
