<svg width="100" height="100" viewBox="0 0 100 100" fill="none" xmlns="http://www.w3.org/2000/svg">
<g clip-path="url(#clip0_10_613)">
<rect width="100" height="100" fill="#C1E167"/>
<rect x="-11.7999" y="91.2" width="14.5664" height="14.5664" transform="rotate(-45 -11.7999 91.2)" fill="#C1E167"/>
<rect x="-1.5" y="101.5" width="14.5664" height="14.5664" transform="rotate(-45 -1.5 101.5)" fill="#88C800"/>
<rect x="-11.7999" y="70.6" width="14.5664" height="14.5664" transform="rotate(-45 -11.7999 70.6)" fill="#C1E167"/>
<rect x="-1.5" y="80.9" width="14.5664" height="14.5664" transform="rotate(-45 -1.5 80.9)" fill="#88C800"/>
<rect x="8.80005" y="91.2" width="14.5664" height="14.5664" transform="rotate(-45 8.80005 91.2)" fill="#C1E167"/>
<rect x="19.1" y="101.5" width="14.5664" height="14.5664" transform="rotate(-45 19.1 101.5)" fill="#88C800"/>
<rect x="-11.7999" y="50" width="14.5664" height="14.5664" transform="rotate(-45 -11.7999 50)" fill="#88C800"/>
<rect x="-1.5" y="60.3" width="14.5664" height="14.5664" transform="rotate(-45 -1.5 60.3)" fill="#C1E167"/>
<rect x="8.80005" y="70.6" width="14.5664" height="14.5664" transform="rotate(-45 8.80005 70.6)" fill="#88C800"/>
<rect x="19.1" y="80.9" width="14.5664" height="14.5664" transform="rotate(-45 19.1 80.9)" fill="#C1E167"/>
<rect x="29.4" y="91.2" width="14.5664" height="14.5664" transform="rotate(-45 29.4 91.2)" fill="#88C800"/>
<rect x="39.7" y="101.5" width="14.5664" height="14.5664" transform="rotate(-45 39.7 101.5)" fill="#C1E167"/>
<rect x="-11.8" y="29.4" width="14.5664" height="14.5664" transform="rotate(-45 -11.8 29.4)" fill="#88C800"/>
<rect x="-1.5" y="39.7" width="14.5664" height="14.5664" transform="rotate(-45 -1.5 39.7)" fill="#C1E167"/>
<rect x="8.80005" y="50" width="14.5664" height="14.5664" transform="rotate(-45 8.80005 50)" fill="#88C800"/>
<rect x="19.1" y="60.3" width="14.5664" height="14.5664" transform="rotate(-45 19.1 60.3)" fill="#C1E167"/>
<rect x="29.4" y="70.6" width="14.5664" height="14.5664" transform="rotate(-45 29.4 70.6)" fill="#88C800"/>
<rect x="39.7" y="80.9" width="14.5664" height="14.5664" transform="rotate(-45 39.7 80.9)" fill="#C1E167"/>
<rect x="50" y="91.2" width="14.5664" height="14.5664" transform="rotate(-45 50 91.2)" fill="#88C800"/>
<rect x="60.3" y="101.5" width="14.5664" height="14.5664" transform="rotate(-45 60.3 101.5)" fill="#C1E167"/>
<rect x="-11.8" y="8.79999" width="14.5664" height="14.5664" transform="rotate(-45 -11.8 8.79999)" fill="#88C800"/>
<rect x="-1.5" y="19.1" width="14.5664" height="14.5664" transform="rotate(-45 -1.5 19.1)" fill="#C1E167"/>
<rect x="8.80005" y="29.4" width="14.5664" height="14.5664" transform="rotate(-45 8.80005 29.4)" fill="#88C800"/>
<rect x="19.1" y="39.7" width="14.5664" height="14.5664" transform="rotate(-45 19.1 39.7)" fill="#C1E167"/>
<rect x="29.4" y="50" width="14.5664" height="14.5664" transform="rotate(-45 29.4 50)" fill="#88C800"/>
<rect x="39.7" y="60.3" width="14.5664" height="14.5664" transform="rotate(-45 39.7 60.3)" fill="#C1E167"/>
<rect x="50" y="70.6" width="14.5664" height="14.5664" transform="rotate(-45 50 70.6)" fill="#88C800"/>
<rect x="60.3" y="80.9" width="14.5664" height="14.5664" transform="rotate(-45 60.3 80.9)" fill="#C1E167"/>
<rect x="70.6" y="91.2" width="14.5664" height="14.5664" transform="rotate(-45 70.6 91.2)" fill="#88C800"/>
<rect x="80.9" y="101.5" width="14.5664" height="14.5664" transform="rotate(-45 80.9 101.5)" fill="#C1E167"/>
<rect x="-1.5" y="-1.50003" width="14.5664" height="14.5664" transform="rotate(-45 -1.5 -1.50003)" fill="#88C800"/>
<rect x="8.80005" y="8.79999" width="14.5664" height="14.5664" transform="rotate(-45 8.80005 8.79999)" fill="#C1E167"/>
<rect x="19.1" y="19.1" width="14.5664" height="14.5664" transform="rotate(-45 19.1 19.1)" fill="#88C800"/>
<rect x="29.4" y="29.4" width="14.5664" height="14.5664" transform="rotate(-45 29.4 29.4)" fill="#C1E167"/>
<rect x="39.7" y="39.7" width="14.5664" height="14.5664" transform="rotate(-45 39.7 39.7)" fill="#88C800"/>
<rect x="50" y="50" width="14.5664" height="14.5664" transform="rotate(-45 50 50)" fill="#C1E167"/>
<rect x="60.3" y="60.3" width="14.5664" height="14.5664" transform="rotate(-45 60.3 60.3)" fill="#88C800"/>
<rect x="70.6" y="70.6" width="14.5664" height="14.5664" transform="rotate(-45 70.6 70.6)" fill="#C1E167"/>
<rect x="80.9" y="80.9" width="14.5664" height="14.5664" transform="rotate(-45 80.9 80.9)" fill="#88C800"/>
<rect x="91.2" y="91.2" width="14.5664" height="14.5664" transform="rotate(-45 91.2 91.2)" fill="#C1E167"/>
<rect x="19.1" y="-1.50003" width="14.5664" height="14.5664" transform="rotate(-45 19.1 -1.50003)" fill="#88C800"/>
<rect x="29.4" y="8.79999" width="14.5664" height="14.5664" transform="rotate(-45 29.4 8.79999)" fill="#C1E167"/>
<rect x="39.7" y="19.1" width="14.5664" height="14.5664" transform="rotate(-45 39.7 19.1)" fill="#88C800"/>
<rect x="50" y="29.4" width="14.5664" height="14.5664" transform="rotate(-45 50 29.4)" fill="#C1E167"/>
<rect x="60.3" y="39.7" width="14.5664" height="14.5664" transform="rotate(-45 60.3 39.7)" fill="#88C800"/>
<rect x="70.6" y="50" width="14.5664" height="14.5664" transform="rotate(-45 70.6 50)" fill="#C1E167"/>
<rect x="80.9" y="60.3" width="14.5664" height="14.5664" transform="rotate(-45 80.9 60.3)" fill="#88C800"/>
<rect x="91.2" y="70.6" width="14.5664" height="14.5664" transform="rotate(-45 91.2 70.6)" fill="#C1E167"/>
<rect x="39.7" y="-1.50003" width="14.5664" height="14.5664" transform="rotate(-45 39.7 -1.50003)" fill="#88C800"/>
<rect x="50" y="8.79999" width="14.5664" height="14.5664" transform="rotate(-45 50 8.79999)" fill="#C1E167"/>
<rect x="60.3" y="19.1" width="14.5664" height="14.5664" transform="rotate(-45 60.3 19.1)" fill="#88C800"/>
<rect x="70.6" y="29.4" width="14.5664" height="14.5664" transform="rotate(-45 70.6 29.4)" fill="#C1E167"/>
<rect x="80.9" y="39.7" width="14.5664" height="14.5664" transform="rotate(-45 80.9 39.7)" fill="#88C800"/>
<rect x="91.2" y="50" width="14.5664" height="14.5664" transform="rotate(-45 91.2 50)" fill="#C1E167"/>
<rect x="60.3" y="-1.50003" width="14.5664" height="14.5664" transform="rotate(-45 60.3 -1.50003)" fill="#C1E167"/>
<rect x="70.6" y="8.79999" width="14.5664" height="14.5664" transform="rotate(-45 70.6 8.79999)" fill="#88C800"/>
<rect x="80.9" y="19.1" width="14.5664" height="14.5664" transform="rotate(-45 80.9 19.1)" fill="#C1E167"/>
<rect x="91.2" y="29.4" width="14.5664" height="14.5664" transform="rotate(-45 91.2 29.4)" fill="#88C800"/>
<rect x="80.9" y="-1.50003" width="14.5664" height="14.5664" transform="rotate(-45 80.9 -1.50003)" fill="#C1E167"/>
<rect x="91.2" y="8.79999" width="14.5664" height="14.5664" transform="rotate(-45 91.2 8.79999)" fill="#88C800"/>
</g>
<defs>
<clipPath id="clip0_10_613">
<rect width="100" height="100" fill="white"/>
</clipPath>
</defs>
</svg>
