<svg width="100" height="100" viewBox="0 0 100 100" fill="none" xmlns="http://www.w3.org/2000/svg">
<g clip-path="url(#clip0_10_714)">
<rect width="100" height="100" fill="#D9D9D9"/>
<path d="M10 5C10 7.76142 7.76142 10 5 10C2.23858 10 0 7.76142 0 5C0 2.23858 2.23858 0 5 0C7.76142 0 10 2.23858 10 5Z" fill="url(#paint0_linear_10_714)"/>
<path d="M10 15C10 17.7614 7.76142 20 5 20C2.23858 20 0 17.7614 0 15C0 12.2386 2.23858 10 5 10C7.76142 10 10 12.2386 10 15Z" fill="url(#paint1_linear_10_714)"/>
<path d="M10 25C10 27.7614 7.76142 30 5 30C2.23858 30 0 27.7614 0 25C0 22.2386 2.23858 20 5 20C7.76142 20 10 22.2386 10 25Z" fill="url(#paint2_linear_10_714)"/>
<path d="M10 35C10 37.7614 7.76142 40 5 40C2.23858 40 0 37.7614 0 35C0 32.2386 2.23858 30 5 30C7.76142 30 10 32.2386 10 35Z" fill="url(#paint3_linear_10_714)"/>
<path d="M10 45C10 47.7614 7.76142 50 5 50C2.23858 50 0 47.7614 0 45C0 42.2386 2.23858 40 5 40C7.76142 40 10 42.2386 10 45Z" fill="url(#paint4_linear_10_714)"/>
<path d="M10 55C10 57.7614 7.76142 60 5 60C2.23858 60 0 57.7614 0 55C0 52.2386 2.23858 50 5 50C7.76142 50 10 52.2386 10 55Z" fill="url(#paint5_linear_10_714)"/>
<path d="M10 65C10 67.7614 7.76142 70 5 70C2.23858 70 0 67.7614 0 65C0 62.2386 2.23858 60 5 60C7.76142 60 10 62.2386 10 65Z" fill="url(#paint6_linear_10_714)"/>
<path d="M10 75C10 77.7614 7.76142 80 5 80C2.23858 80 0 77.7614 0 75C0 72.2386 2.23858 70 5 70C7.76142 70 10 72.2386 10 75Z" fill="url(#paint7_linear_10_714)"/>
<path d="M10 85C10 87.7614 7.76142 90 5 90C2.23858 90 0 87.7614 0 85C0 82.2386 2.23858 80 5 80C7.76142 80 10 82.2386 10 85Z" fill="url(#paint8_linear_10_714)"/>
<path d="M10 95C10 97.7614 7.76142 100 5 100C2.23858 100 0 97.7614 0 95C0 92.2386 2.23858 90 5 90C7.76142 90 10 92.2386 10 95Z" fill="url(#paint9_linear_10_714)"/>
<path d="M20 5C20 7.76142 17.7614 10 15 10C12.2386 10 10 7.76142 10 5C10 2.23858 12.2386 0 15 0C17.7614 0 20 2.23858 20 5Z" fill="url(#paint10_linear_10_714)"/>
<path d="M20 15C20 17.7614 17.7614 20 15 20C12.2386 20 10 17.7614 10 15C10 12.2386 12.2386 10 15 10C17.7614 10 20 12.2386 20 15Z" fill="url(#paint11_linear_10_714)"/>
<path d="M20 25C20 27.7614 17.7614 30 15 30C12.2386 30 10 27.7614 10 25C10 22.2386 12.2386 20 15 20C17.7614 20 20 22.2386 20 25Z" fill="url(#paint12_linear_10_714)"/>
<path d="M20 35C20 37.7614 17.7614 40 15 40C12.2386 40 10 37.7614 10 35C10 32.2386 12.2386 30 15 30C17.7614 30 20 32.2386 20 35Z" fill="url(#paint13_linear_10_714)"/>
<path d="M20 45C20 47.7614 17.7614 50 15 50C12.2386 50 10 47.7614 10 45C10 42.2386 12.2386 40 15 40C17.7614 40 20 42.2386 20 45Z" fill="url(#paint14_linear_10_714)"/>
<path d="M20 55C20 57.7614 17.7614 60 15 60C12.2386 60 10 57.7614 10 55C10 52.2386 12.2386 50 15 50C17.7614 50 20 52.2386 20 55Z" fill="url(#paint15_linear_10_714)"/>
<path d="M20 65C20 67.7614 17.7614 70 15 70C12.2386 70 10 67.7614 10 65C10 62.2386 12.2386 60 15 60C17.7614 60 20 62.2386 20 65Z" fill="url(#paint16_linear_10_714)"/>
<path d="M20 75C20 77.7614 17.7614 80 15 80C12.2386 80 10 77.7614 10 75C10 72.2386 12.2386 70 15 70C17.7614 70 20 72.2386 20 75Z" fill="url(#paint17_linear_10_714)"/>
<path d="M20 85C20 87.7614 17.7614 90 15 90C12.2386 90 10 87.7614 10 85C10 82.2386 12.2386 80 15 80C17.7614 80 20 82.2386 20 85Z" fill="url(#paint18_linear_10_714)"/>
<path d="M20 95C20 97.7614 17.7614 100 15 100C12.2386 100 10 97.7614 10 95C10 92.2386 12.2386 90 15 90C17.7614 90 20 92.2386 20 95Z" fill="url(#paint19_linear_10_714)"/>
<path d="M30 5C30 7.76142 27.7614 10 25 10C22.2386 10 20 7.76142 20 5C20 2.23858 22.2386 0 25 0C27.7614 0 30 2.23858 30 5Z" fill="url(#paint20_linear_10_714)"/>
<path d="M30 15C30 17.7614 27.7614 20 25 20C22.2386 20 20 17.7614 20 15C20 12.2386 22.2386 10 25 10C27.7614 10 30 12.2386 30 15Z" fill="url(#paint21_linear_10_714)"/>
<path d="M30 25C30 27.7614 27.7614 30 25 30C22.2386 30 20 27.7614 20 25C20 22.2386 22.2386 20 25 20C27.7614 20 30 22.2386 30 25Z" fill="url(#paint22_linear_10_714)"/>
<path d="M30 35C30 37.7614 27.7614 40 25 40C22.2386 40 20 37.7614 20 35C20 32.2386 22.2386 30 25 30C27.7614 30 30 32.2386 30 35Z" fill="url(#paint23_linear_10_714)"/>
<path d="M30 45C30 47.7614 27.7614 50 25 50C22.2386 50 20 47.7614 20 45C20 42.2386 22.2386 40 25 40C27.7614 40 30 42.2386 30 45Z" fill="url(#paint24_linear_10_714)"/>
<path d="M30 55C30 57.7614 27.7614 60 25 60C22.2386 60 20 57.7614 20 55C20 52.2386 22.2386 50 25 50C27.7614 50 30 52.2386 30 55Z" fill="url(#paint25_linear_10_714)"/>
<path d="M30 65C30 67.7614 27.7614 70 25 70C22.2386 70 20 67.7614 20 65C20 62.2386 22.2386 60 25 60C27.7614 60 30 62.2386 30 65Z" fill="url(#paint26_linear_10_714)"/>
<path d="M30 75C30 77.7614 27.7614 80 25 80C22.2386 80 20 77.7614 20 75C20 72.2386 22.2386 70 25 70C27.7614 70 30 72.2386 30 75Z" fill="url(#paint27_linear_10_714)"/>
<path d="M30 85C30 87.7614 27.7614 90 25 90C22.2386 90 20 87.7614 20 85C20 82.2386 22.2386 80 25 80C27.7614 80 30 82.2386 30 85Z" fill="url(#paint28_linear_10_714)"/>
<path d="M30 95C30 97.7614 27.7614 100 25 100C22.2386 100 20 97.7614 20 95C20 92.2386 22.2386 90 25 90C27.7614 90 30 92.2386 30 95Z" fill="url(#paint29_linear_10_714)"/>
<path d="M40 5C40 7.76142 37.7614 10 35 10C32.2386 10 30 7.76142 30 5C30 2.23858 32.2386 0 35 0C37.7614 0 40 2.23858 40 5Z" fill="url(#paint30_linear_10_714)"/>
<path d="M40 15C40 17.7614 37.7614 20 35 20C32.2386 20 30 17.7614 30 15C30 12.2386 32.2386 10 35 10C37.7614 10 40 12.2386 40 15Z" fill="url(#paint31_linear_10_714)"/>
<path d="M40 25C40 27.7614 37.7614 30 35 30C32.2386 30 30 27.7614 30 25C30 22.2386 32.2386 20 35 20C37.7614 20 40 22.2386 40 25Z" fill="url(#paint32_linear_10_714)"/>
<path d="M40 35C40 37.7614 37.7614 40 35 40C32.2386 40 30 37.7614 30 35C30 32.2386 32.2386 30 35 30C37.7614 30 40 32.2386 40 35Z" fill="url(#paint33_linear_10_714)"/>
<path d="M40 45C40 47.7614 37.7614 50 35 50C32.2386 50 30 47.7614 30 45C30 42.2386 32.2386 40 35 40C37.7614 40 40 42.2386 40 45Z" fill="url(#paint34_linear_10_714)"/>
<path d="M40 55C40 57.7614 37.7614 60 35 60C32.2386 60 30 57.7614 30 55C30 52.2386 32.2386 50 35 50C37.7614 50 40 52.2386 40 55Z" fill="url(#paint35_linear_10_714)"/>
<path d="M40 65C40 67.7614 37.7614 70 35 70C32.2386 70 30 67.7614 30 65C30 62.2386 32.2386 60 35 60C37.7614 60 40 62.2386 40 65Z" fill="url(#paint36_linear_10_714)"/>
<path d="M40 75C40 77.7614 37.7614 80 35 80C32.2386 80 30 77.7614 30 75C30 72.2386 32.2386 70 35 70C37.7614 70 40 72.2386 40 75Z" fill="url(#paint37_linear_10_714)"/>
<path d="M40 85C40 87.7614 37.7614 90 35 90C32.2386 90 30 87.7614 30 85C30 82.2386 32.2386 80 35 80C37.7614 80 40 82.2386 40 85Z" fill="url(#paint38_linear_10_714)"/>
<path d="M40 95C40 97.7614 37.7614 100 35 100C32.2386 100 30 97.7614 30 95C30 92.2386 32.2386 90 35 90C37.7614 90 40 92.2386 40 95Z" fill="url(#paint39_linear_10_714)"/>
<path d="M50 5C50 7.76142 47.7614 10 45 10C42.2386 10 40 7.76142 40 5C40 2.23858 42.2386 0 45 0C47.7614 0 50 2.23858 50 5Z" fill="url(#paint40_linear_10_714)"/>
<path d="M50 15C50 17.7614 47.7614 20 45 20C42.2386 20 40 17.7614 40 15C40 12.2386 42.2386 10 45 10C47.7614 10 50 12.2386 50 15Z" fill="url(#paint41_linear_10_714)"/>
<path d="M50 25C50 27.7614 47.7614 30 45 30C42.2386 30 40 27.7614 40 25C40 22.2386 42.2386 20 45 20C47.7614 20 50 22.2386 50 25Z" fill="url(#paint42_linear_10_714)"/>
<path d="M50 35C50 37.7614 47.7614 40 45 40C42.2386 40 40 37.7614 40 35C40 32.2386 42.2386 30 45 30C47.7614 30 50 32.2386 50 35Z" fill="url(#paint43_linear_10_714)"/>
<path d="M50 45C50 47.7614 47.7614 50 45 50C42.2386 50 40 47.7614 40 45C40 42.2386 42.2386 40 45 40C47.7614 40 50 42.2386 50 45Z" fill="url(#paint44_linear_10_714)"/>
<path d="M50 55C50 57.7614 47.7614 60 45 60C42.2386 60 40 57.7614 40 55C40 52.2386 42.2386 50 45 50C47.7614 50 50 52.2386 50 55Z" fill="url(#paint45_linear_10_714)"/>
<path d="M50 65C50 67.7614 47.7614 70 45 70C42.2386 70 40 67.7614 40 65C40 62.2386 42.2386 60 45 60C47.7614 60 50 62.2386 50 65Z" fill="url(#paint46_linear_10_714)"/>
<path d="M50 75C50 77.7614 47.7614 80 45 80C42.2386 80 40 77.7614 40 75C40 72.2386 42.2386 70 45 70C47.7614 70 50 72.2386 50 75Z" fill="url(#paint47_linear_10_714)"/>
<path d="M50 85C50 87.7614 47.7614 90 45 90C42.2386 90 40 87.7614 40 85C40 82.2386 42.2386 80 45 80C47.7614 80 50 82.2386 50 85Z" fill="url(#paint48_linear_10_714)"/>
<path d="M50 95C50 97.7614 47.7614 100 45 100C42.2386 100 40 97.7614 40 95C40 92.2386 42.2386 90 45 90C47.7614 90 50 92.2386 50 95Z" fill="url(#paint49_linear_10_714)"/>
<path d="M60 5C60 7.76142 57.7614 10 55 10C52.2386 10 50 7.76142 50 5C50 2.23858 52.2386 0 55 0C57.7614 0 60 2.23858 60 5Z" fill="url(#paint50_linear_10_714)"/>
<path d="M60 15C60 17.7614 57.7614 20 55 20C52.2386 20 50 17.7614 50 15C50 12.2386 52.2386 10 55 10C57.7614 10 60 12.2386 60 15Z" fill="url(#paint51_linear_10_714)"/>
<path d="M60 25C60 27.7614 57.7614 30 55 30C52.2386 30 50 27.7614 50 25C50 22.2386 52.2386 20 55 20C57.7614 20 60 22.2386 60 25Z" fill="url(#paint52_linear_10_714)"/>
<path d="M60 35C60 37.7614 57.7614 40 55 40C52.2386 40 50 37.7614 50 35C50 32.2386 52.2386 30 55 30C57.7614 30 60 32.2386 60 35Z" fill="url(#paint53_linear_10_714)"/>
<path d="M60 45C60 47.7614 57.7614 50 55 50C52.2386 50 50 47.7614 50 45C50 42.2386 52.2386 40 55 40C57.7614 40 60 42.2386 60 45Z" fill="url(#paint54_linear_10_714)"/>
<path d="M60 55C60 57.7614 57.7614 60 55 60C52.2386 60 50 57.7614 50 55C50 52.2386 52.2386 50 55 50C57.7614 50 60 52.2386 60 55Z" fill="url(#paint55_linear_10_714)"/>
<path d="M60 65C60 67.7614 57.7614 70 55 70C52.2386 70 50 67.7614 50 65C50 62.2386 52.2386 60 55 60C57.7614 60 60 62.2386 60 65Z" fill="url(#paint56_linear_10_714)"/>
<path d="M60 75C60 77.7614 57.7614 80 55 80C52.2386 80 50 77.7614 50 75C50 72.2386 52.2386 70 55 70C57.7614 70 60 72.2386 60 75Z" fill="url(#paint57_linear_10_714)"/>
<path d="M60 85C60 87.7614 57.7614 90 55 90C52.2386 90 50 87.7614 50 85C50 82.2386 52.2386 80 55 80C57.7614 80 60 82.2386 60 85Z" fill="url(#paint58_linear_10_714)"/>
<path d="M60 95C60 97.7614 57.7614 100 55 100C52.2386 100 50 97.7614 50 95C50 92.2386 52.2386 90 55 90C57.7614 90 60 92.2386 60 95Z" fill="url(#paint59_linear_10_714)"/>
<path d="M70 5C70 7.76142 67.7614 10 65 10C62.2386 10 60 7.76142 60 5C60 2.23858 62.2386 0 65 0C67.7614 0 70 2.23858 70 5Z" fill="url(#paint60_linear_10_714)"/>
<path d="M70 15C70 17.7614 67.7614 20 65 20C62.2386 20 60 17.7614 60 15C60 12.2386 62.2386 10 65 10C67.7614 10 70 12.2386 70 15Z" fill="url(#paint61_linear_10_714)"/>
<path d="M70 25C70 27.7614 67.7614 30 65 30C62.2386 30 60 27.7614 60 25C60 22.2386 62.2386 20 65 20C67.7614 20 70 22.2386 70 25Z" fill="url(#paint62_linear_10_714)"/>
<path d="M70 35C70 37.7614 67.7614 40 65 40C62.2386 40 60 37.7614 60 35C60 32.2386 62.2386 30 65 30C67.7614 30 70 32.2386 70 35Z" fill="url(#paint63_linear_10_714)"/>
<path d="M70 45C70 47.7614 67.7614 50 65 50C62.2386 50 60 47.7614 60 45C60 42.2386 62.2386 40 65 40C67.7614 40 70 42.2386 70 45Z" fill="url(#paint64_linear_10_714)"/>
<path d="M70 55C70 57.7614 67.7614 60 65 60C62.2386 60 60 57.7614 60 55C60 52.2386 62.2386 50 65 50C67.7614 50 70 52.2386 70 55Z" fill="url(#paint65_linear_10_714)"/>
<path d="M70 65C70 67.7614 67.7614 70 65 70C62.2386 70 60 67.7614 60 65C60 62.2386 62.2386 60 65 60C67.7614 60 70 62.2386 70 65Z" fill="url(#paint66_linear_10_714)"/>
<path d="M70 75C70 77.7614 67.7614 80 65 80C62.2386 80 60 77.7614 60 75C60 72.2386 62.2386 70 65 70C67.7614 70 70 72.2386 70 75Z" fill="url(#paint67_linear_10_714)"/>
<path d="M70 85C70 87.7614 67.7614 90 65 90C62.2386 90 60 87.7614 60 85C60 82.2386 62.2386 80 65 80C67.7614 80 70 82.2386 70 85Z" fill="url(#paint68_linear_10_714)"/>
<path d="M70 95C70 97.7614 67.7614 100 65 100C62.2386 100 60 97.7614 60 95C60 92.2386 62.2386 90 65 90C67.7614 90 70 92.2386 70 95Z" fill="url(#paint69_linear_10_714)"/>
<path d="M80 5C80 7.76142 77.7614 10 75 10C72.2386 10 70 7.76142 70 5C70 2.23858 72.2386 0 75 0C77.7614 0 80 2.23858 80 5Z" fill="url(#paint70_linear_10_714)"/>
<path d="M80 15C80 17.7614 77.7614 20 75 20C72.2386 20 70 17.7614 70 15C70 12.2386 72.2386 10 75 10C77.7614 10 80 12.2386 80 15Z" fill="url(#paint71_linear_10_714)"/>
<path d="M80 25C80 27.7614 77.7614 30 75 30C72.2386 30 70 27.7614 70 25C70 22.2386 72.2386 20 75 20C77.7614 20 80 22.2386 80 25Z" fill="url(#paint72_linear_10_714)"/>
<path d="M80 35C80 37.7614 77.7614 40 75 40C72.2386 40 70 37.7614 70 35C70 32.2386 72.2386 30 75 30C77.7614 30 80 32.2386 80 35Z" fill="url(#paint73_linear_10_714)"/>
<path d="M80 45C80 47.7614 77.7614 50 75 50C72.2386 50 70 47.7614 70 45C70 42.2386 72.2386 40 75 40C77.7614 40 80 42.2386 80 45Z" fill="url(#paint74_linear_10_714)"/>
<path d="M80 55C80 57.7614 77.7614 60 75 60C72.2386 60 70 57.7614 70 55C70 52.2386 72.2386 50 75 50C77.7614 50 80 52.2386 80 55Z" fill="url(#paint75_linear_10_714)"/>
<path d="M80 65C80 67.7614 77.7614 70 75 70C72.2386 70 70 67.7614 70 65C70 62.2386 72.2386 60 75 60C77.7614 60 80 62.2386 80 65Z" fill="url(#paint76_linear_10_714)"/>
<path d="M80 75C80 77.7614 77.7614 80 75 80C72.2386 80 70 77.7614 70 75C70 72.2386 72.2386 70 75 70C77.7614 70 80 72.2386 80 75Z" fill="url(#paint77_linear_10_714)"/>
<path d="M80 85C80 87.7614 77.7614 90 75 90C72.2386 90 70 87.7614 70 85C70 82.2386 72.2386 80 75 80C77.7614 80 80 82.2386 80 85Z" fill="url(#paint78_linear_10_714)"/>
<path d="M80 95C80 97.7614 77.7614 100 75 100C72.2386 100 70 97.7614 70 95C70 92.2386 72.2386 90 75 90C77.7614 90 80 92.2386 80 95Z" fill="url(#paint79_linear_10_714)"/>
<path d="M90 5C90 7.76142 87.7614 10 85 10C82.2386 10 80 7.76142 80 5C80 2.23858 82.2386 0 85 0C87.7614 0 90 2.23858 90 5Z" fill="url(#paint80_linear_10_714)"/>
<path d="M90 15C90 17.7614 87.7614 20 85 20C82.2386 20 80 17.7614 80 15C80 12.2386 82.2386 10 85 10C87.7614 10 90 12.2386 90 15Z" fill="url(#paint81_linear_10_714)"/>
<path d="M90 25C90 27.7614 87.7614 30 85 30C82.2386 30 80 27.7614 80 25C80 22.2386 82.2386 20 85 20C87.7614 20 90 22.2386 90 25Z" fill="url(#paint82_linear_10_714)"/>
<path d="M90 35C90 37.7614 87.7614 40 85 40C82.2386 40 80 37.7614 80 35C80 32.2386 82.2386 30 85 30C87.7614 30 90 32.2386 90 35Z" fill="url(#paint83_linear_10_714)"/>
<path d="M90 45C90 47.7614 87.7614 50 85 50C82.2386 50 80 47.7614 80 45C80 42.2386 82.2386 40 85 40C87.7614 40 90 42.2386 90 45Z" fill="url(#paint84_linear_10_714)"/>
<path d="M90 55C90 57.7614 87.7614 60 85 60C82.2386 60 80 57.7614 80 55C80 52.2386 82.2386 50 85 50C87.7614 50 90 52.2386 90 55Z" fill="url(#paint85_linear_10_714)"/>
<path d="M90 65C90 67.7614 87.7614 70 85 70C82.2386 70 80 67.7614 80 65C80 62.2386 82.2386 60 85 60C87.7614 60 90 62.2386 90 65Z" fill="url(#paint86_linear_10_714)"/>
<path d="M90 75C90 77.7614 87.7614 80 85 80C82.2386 80 80 77.7614 80 75C80 72.2386 82.2386 70 85 70C87.7614 70 90 72.2386 90 75Z" fill="url(#paint87_linear_10_714)"/>
<path d="M90 85C90 87.7614 87.7614 90 85 90C82.2386 90 80 87.7614 80 85C80 82.2386 82.2386 80 85 80C87.7614 80 90 82.2386 90 85Z" fill="url(#paint88_linear_10_714)"/>
<path d="M90 95C90 97.7614 87.7614 100 85 100C82.2386 100 80 97.7614 80 95C80 92.2386 82.2386 90 85 90C87.7614 90 90 92.2386 90 95Z" fill="url(#paint89_linear_10_714)"/>
<path d="M100 5C100 7.76142 97.7614 10 95 10C92.2386 10 90 7.76142 90 5C90 2.23858 92.2386 0 95 0C97.7614 0 100 2.23858 100 5Z" fill="url(#paint90_linear_10_714)"/>
<path d="M100 15C100 17.7614 97.7614 20 95 20C92.2386 20 90 17.7614 90 15C90 12.2386 92.2386 10 95 10C97.7614 10 100 12.2386 100 15Z" fill="url(#paint91_linear_10_714)"/>
<path d="M100 25C100 27.7614 97.7614 30 95 30C92.2386 30 90 27.7614 90 25C90 22.2386 92.2386 20 95 20C97.7614 20 100 22.2386 100 25Z" fill="url(#paint92_linear_10_714)"/>
<path d="M100 35C100 37.7614 97.7614 40 95 40C92.2386 40 90 37.7614 90 35C90 32.2386 92.2386 30 95 30C97.7614 30 100 32.2386 100 35Z" fill="url(#paint93_linear_10_714)"/>
<path d="M100 45C100 47.7614 97.7614 50 95 50C92.2386 50 90 47.7614 90 45C90 42.2386 92.2386 40 95 40C97.7614 40 100 42.2386 100 45Z" fill="url(#paint94_linear_10_714)"/>
<path d="M100 55C100 57.7614 97.7614 60 95 60C92.2386 60 90 57.7614 90 55C90 52.2386 92.2386 50 95 50C97.7614 50 100 52.2386 100 55Z" fill="url(#paint95_linear_10_714)"/>
<path d="M100 65C100 67.7614 97.7614 70 95 70C92.2386 70 90 67.7614 90 65C90 62.2386 92.2386 60 95 60C97.7614 60 100 62.2386 100 65Z" fill="url(#paint96_linear_10_714)"/>
<path d="M100 75C100 77.7614 97.7614 80 95 80C92.2386 80 90 77.7614 90 75C90 72.2386 92.2386 70 95 70C97.7614 70 100 72.2386 100 75Z" fill="url(#paint97_linear_10_714)"/>
<path d="M100 85C100 87.7614 97.7614 90 95 90C92.2386 90 90 87.7614 90 85C90 82.2386 92.2386 80 95 80C97.7614 80 100 82.2386 100 85Z" fill="url(#paint98_linear_10_714)"/>
<path d="M100 95C100 97.7614 97.7614 100 95 100C92.2386 100 90 97.7614 90 95C90 92.2386 92.2386 90 95 90C97.7614 90 100 92.2386 100 95Z" fill="url(#paint99_linear_10_714)"/>
</g>
<defs>
<linearGradient id="paint0_linear_10_714" x1="50" y1="0" x2="50" y2="100" gradientUnits="userSpaceOnUse">
<stop stop-color="#727272"/>
<stop offset="1" stop-color="#727272" stop-opacity="0"/>
</linearGradient>
<linearGradient id="paint1_linear_10_714" x1="50" y1="0" x2="50" y2="100" gradientUnits="userSpaceOnUse">
<stop stop-color="#727272"/>
<stop offset="1" stop-color="#727272" stop-opacity="0"/>
</linearGradient>
<linearGradient id="paint2_linear_10_714" x1="50" y1="0" x2="50" y2="100" gradientUnits="userSpaceOnUse">
<stop stop-color="#727272"/>
<stop offset="1" stop-color="#727272" stop-opacity="0"/>
</linearGradient>
<linearGradient id="paint3_linear_10_714" x1="50" y1="0" x2="50" y2="100" gradientUnits="userSpaceOnUse">
<stop stop-color="#727272"/>
<stop offset="1" stop-color="#727272" stop-opacity="0"/>
</linearGradient>
<linearGradient id="paint4_linear_10_714" x1="50" y1="0" x2="50" y2="100" gradientUnits="userSpaceOnUse">
<stop stop-color="#727272"/>
<stop offset="1" stop-color="#727272" stop-opacity="0"/>
</linearGradient>
<linearGradient id="paint5_linear_10_714" x1="50" y1="0" x2="50" y2="100" gradientUnits="userSpaceOnUse">
<stop stop-color="#727272"/>
<stop offset="1" stop-color="#727272" stop-opacity="0"/>
</linearGradient>
<linearGradient id="paint6_linear_10_714" x1="50" y1="0" x2="50" y2="100" gradientUnits="userSpaceOnUse">
<stop stop-color="#727272"/>
<stop offset="1" stop-color="#727272" stop-opacity="0"/>
</linearGradient>
<linearGradient id="paint7_linear_10_714" x1="50" y1="0" x2="50" y2="100" gradientUnits="userSpaceOnUse">
<stop stop-color="#727272"/>
<stop offset="1" stop-color="#727272" stop-opacity="0"/>
</linearGradient>
<linearGradient id="paint8_linear_10_714" x1="50" y1="0" x2="50" y2="100" gradientUnits="userSpaceOnUse">
<stop stop-color="#727272"/>
<stop offset="1" stop-color="#727272" stop-opacity="0"/>
</linearGradient>
<linearGradient id="paint9_linear_10_714" x1="50" y1="0" x2="50" y2="100" gradientUnits="userSpaceOnUse">
<stop stop-color="#727272"/>
<stop offset="1" stop-color="#727272" stop-opacity="0"/>
</linearGradient>
<linearGradient id="paint10_linear_10_714" x1="50" y1="0" x2="50" y2="100" gradientUnits="userSpaceOnUse">
<stop stop-color="#727272"/>
<stop offset="1" stop-color="#727272" stop-opacity="0"/>
</linearGradient>
<linearGradient id="paint11_linear_10_714" x1="50" y1="0" x2="50" y2="100" gradientUnits="userSpaceOnUse">
<stop stop-color="#727272"/>
<stop offset="1" stop-color="#727272" stop-opacity="0"/>
</linearGradient>
<linearGradient id="paint12_linear_10_714" x1="50" y1="0" x2="50" y2="100" gradientUnits="userSpaceOnUse">
<stop stop-color="#727272"/>
<stop offset="1" stop-color="#727272" stop-opacity="0"/>
</linearGradient>
<linearGradient id="paint13_linear_10_714" x1="50" y1="0" x2="50" y2="100" gradientUnits="userSpaceOnUse">
<stop stop-color="#727272"/>
<stop offset="1" stop-color="#727272" stop-opacity="0"/>
</linearGradient>
<linearGradient id="paint14_linear_10_714" x1="50" y1="0" x2="50" y2="100" gradientUnits="userSpaceOnUse">
<stop stop-color="#727272"/>
<stop offset="1" stop-color="#727272" stop-opacity="0"/>
</linearGradient>
<linearGradient id="paint15_linear_10_714" x1="50" y1="0" x2="50" y2="100" gradientUnits="userSpaceOnUse">
<stop stop-color="#727272"/>
<stop offset="1" stop-color="#727272" stop-opacity="0"/>
</linearGradient>
<linearGradient id="paint16_linear_10_714" x1="50" y1="0" x2="50" y2="100" gradientUnits="userSpaceOnUse">
<stop stop-color="#727272"/>
<stop offset="1" stop-color="#727272" stop-opacity="0"/>
</linearGradient>
<linearGradient id="paint17_linear_10_714" x1="50" y1="0" x2="50" y2="100" gradientUnits="userSpaceOnUse">
<stop stop-color="#727272"/>
<stop offset="1" stop-color="#727272" stop-opacity="0"/>
</linearGradient>
<linearGradient id="paint18_linear_10_714" x1="50" y1="0" x2="50" y2="100" gradientUnits="userSpaceOnUse">
<stop stop-color="#727272"/>
<stop offset="1" stop-color="#727272" stop-opacity="0"/>
</linearGradient>
<linearGradient id="paint19_linear_10_714" x1="50" y1="0" x2="50" y2="100" gradientUnits="userSpaceOnUse">
<stop stop-color="#727272"/>
<stop offset="1" stop-color="#727272" stop-opacity="0"/>
</linearGradient>
<linearGradient id="paint20_linear_10_714" x1="50" y1="0" x2="50" y2="100" gradientUnits="userSpaceOnUse">
<stop stop-color="#727272"/>
<stop offset="1" stop-color="#727272" stop-opacity="0"/>
</linearGradient>
<linearGradient id="paint21_linear_10_714" x1="50" y1="0" x2="50" y2="100" gradientUnits="userSpaceOnUse">
<stop stop-color="#727272"/>
<stop offset="1" stop-color="#727272" stop-opacity="0"/>
</linearGradient>
<linearGradient id="paint22_linear_10_714" x1="50" y1="0" x2="50" y2="100" gradientUnits="userSpaceOnUse">
<stop stop-color="#727272"/>
<stop offset="1" stop-color="#727272" stop-opacity="0"/>
</linearGradient>
<linearGradient id="paint23_linear_10_714" x1="50" y1="0" x2="50" y2="100" gradientUnits="userSpaceOnUse">
<stop stop-color="#727272"/>
<stop offset="1" stop-color="#727272" stop-opacity="0"/>
</linearGradient>
<linearGradient id="paint24_linear_10_714" x1="50" y1="0" x2="50" y2="100" gradientUnits="userSpaceOnUse">
<stop stop-color="#727272"/>
<stop offset="1" stop-color="#727272" stop-opacity="0"/>
</linearGradient>
<linearGradient id="paint25_linear_10_714" x1="50" y1="0" x2="50" y2="100" gradientUnits="userSpaceOnUse">
<stop stop-color="#727272"/>
<stop offset="1" stop-color="#727272" stop-opacity="0"/>
</linearGradient>
<linearGradient id="paint26_linear_10_714" x1="50" y1="0" x2="50" y2="100" gradientUnits="userSpaceOnUse">
<stop stop-color="#727272"/>
<stop offset="1" stop-color="#727272" stop-opacity="0"/>
</linearGradient>
<linearGradient id="paint27_linear_10_714" x1="50" y1="0" x2="50" y2="100" gradientUnits="userSpaceOnUse">
<stop stop-color="#727272"/>
<stop offset="1" stop-color="#727272" stop-opacity="0"/>
</linearGradient>
<linearGradient id="paint28_linear_10_714" x1="50" y1="0" x2="50" y2="100" gradientUnits="userSpaceOnUse">
<stop stop-color="#727272"/>
<stop offset="1" stop-color="#727272" stop-opacity="0"/>
</linearGradient>
<linearGradient id="paint29_linear_10_714" x1="50" y1="0" x2="50" y2="100" gradientUnits="userSpaceOnUse">
<stop stop-color="#727272"/>
<stop offset="1" stop-color="#727272" stop-opacity="0"/>
</linearGradient>
<linearGradient id="paint30_linear_10_714" x1="50" y1="0" x2="50" y2="100" gradientUnits="userSpaceOnUse">
<stop stop-color="#727272"/>
<stop offset="1" stop-color="#727272" stop-opacity="0"/>
</linearGradient>
<linearGradient id="paint31_linear_10_714" x1="50" y1="0" x2="50" y2="100" gradientUnits="userSpaceOnUse">
<stop stop-color="#727272"/>
<stop offset="1" stop-color="#727272" stop-opacity="0"/>
</linearGradient>
<linearGradient id="paint32_linear_10_714" x1="50" y1="0" x2="50" y2="100" gradientUnits="userSpaceOnUse">
<stop stop-color="#727272"/>
<stop offset="1" stop-color="#727272" stop-opacity="0"/>
</linearGradient>
<linearGradient id="paint33_linear_10_714" x1="50" y1="0" x2="50" y2="100" gradientUnits="userSpaceOnUse">
<stop stop-color="#727272"/>
<stop offset="1" stop-color="#727272" stop-opacity="0"/>
</linearGradient>
<linearGradient id="paint34_linear_10_714" x1="50" y1="0" x2="50" y2="100" gradientUnits="userSpaceOnUse">
<stop stop-color="#727272"/>
<stop offset="1" stop-color="#727272" stop-opacity="0"/>
</linearGradient>
<linearGradient id="paint35_linear_10_714" x1="50" y1="0" x2="50" y2="100" gradientUnits="userSpaceOnUse">
<stop stop-color="#727272"/>
<stop offset="1" stop-color="#727272" stop-opacity="0"/>
</linearGradient>
<linearGradient id="paint36_linear_10_714" x1="50" y1="0" x2="50" y2="100" gradientUnits="userSpaceOnUse">
<stop stop-color="#727272"/>
<stop offset="1" stop-color="#727272" stop-opacity="0"/>
</linearGradient>
<linearGradient id="paint37_linear_10_714" x1="50" y1="0" x2="50" y2="100" gradientUnits="userSpaceOnUse">
<stop stop-color="#727272"/>
<stop offset="1" stop-color="#727272" stop-opacity="0"/>
</linearGradient>
<linearGradient id="paint38_linear_10_714" x1="50" y1="0" x2="50" y2="100" gradientUnits="userSpaceOnUse">
<stop stop-color="#727272"/>
<stop offset="1" stop-color="#727272" stop-opacity="0"/>
</linearGradient>
<linearGradient id="paint39_linear_10_714" x1="50" y1="0" x2="50" y2="100" gradientUnits="userSpaceOnUse">
<stop stop-color="#727272"/>
<stop offset="1" stop-color="#727272" stop-opacity="0"/>
</linearGradient>
<linearGradient id="paint40_linear_10_714" x1="50" y1="0" x2="50" y2="100" gradientUnits="userSpaceOnUse">
<stop stop-color="#727272"/>
<stop offset="1" stop-color="#727272" stop-opacity="0"/>
</linearGradient>
<linearGradient id="paint41_linear_10_714" x1="50" y1="0" x2="50" y2="100" gradientUnits="userSpaceOnUse">
<stop stop-color="#727272"/>
<stop offset="1" stop-color="#727272" stop-opacity="0"/>
</linearGradient>
<linearGradient id="paint42_linear_10_714" x1="50" y1="0" x2="50" y2="100" gradientUnits="userSpaceOnUse">
<stop stop-color="#727272"/>
<stop offset="1" stop-color="#727272" stop-opacity="0"/>
</linearGradient>
<linearGradient id="paint43_linear_10_714" x1="50" y1="0" x2="50" y2="100" gradientUnits="userSpaceOnUse">
<stop stop-color="#727272"/>
<stop offset="1" stop-color="#727272" stop-opacity="0"/>
</linearGradient>
<linearGradient id="paint44_linear_10_714" x1="50" y1="0" x2="50" y2="100" gradientUnits="userSpaceOnUse">
<stop stop-color="#727272"/>
<stop offset="1" stop-color="#727272" stop-opacity="0"/>
</linearGradient>
<linearGradient id="paint45_linear_10_714" x1="50" y1="0" x2="50" y2="100" gradientUnits="userSpaceOnUse">
<stop stop-color="#727272"/>
<stop offset="1" stop-color="#727272" stop-opacity="0"/>
</linearGradient>
<linearGradient id="paint46_linear_10_714" x1="50" y1="0" x2="50" y2="100" gradientUnits="userSpaceOnUse">
<stop stop-color="#727272"/>
<stop offset="1" stop-color="#727272" stop-opacity="0"/>
</linearGradient>
<linearGradient id="paint47_linear_10_714" x1="50" y1="0" x2="50" y2="100" gradientUnits="userSpaceOnUse">
<stop stop-color="#727272"/>
<stop offset="1" stop-color="#727272" stop-opacity="0"/>
</linearGradient>
<linearGradient id="paint48_linear_10_714" x1="50" y1="0" x2="50" y2="100" gradientUnits="userSpaceOnUse">
<stop stop-color="#727272"/>
<stop offset="1" stop-color="#727272" stop-opacity="0"/>
</linearGradient>
<linearGradient id="paint49_linear_10_714" x1="50" y1="0" x2="50" y2="100" gradientUnits="userSpaceOnUse">
<stop stop-color="#727272"/>
<stop offset="1" stop-color="#727272" stop-opacity="0"/>
</linearGradient>
<linearGradient id="paint50_linear_10_714" x1="50" y1="0" x2="50" y2="100" gradientUnits="userSpaceOnUse">
<stop stop-color="#727272"/>
<stop offset="1" stop-color="#727272" stop-opacity="0"/>
</linearGradient>
<linearGradient id="paint51_linear_10_714" x1="50" y1="0" x2="50" y2="100" gradientUnits="userSpaceOnUse">
<stop stop-color="#727272"/>
<stop offset="1" stop-color="#727272" stop-opacity="0"/>
</linearGradient>
<linearGradient id="paint52_linear_10_714" x1="50" y1="0" x2="50" y2="100" gradientUnits="userSpaceOnUse">
<stop stop-color="#727272"/>
<stop offset="1" stop-color="#727272" stop-opacity="0"/>
</linearGradient>
<linearGradient id="paint53_linear_10_714" x1="50" y1="0" x2="50" y2="100" gradientUnits="userSpaceOnUse">
<stop stop-color="#727272"/>
<stop offset="1" stop-color="#727272" stop-opacity="0"/>
</linearGradient>
<linearGradient id="paint54_linear_10_714" x1="50" y1="0" x2="50" y2="100" gradientUnits="userSpaceOnUse">
<stop stop-color="#727272"/>
<stop offset="1" stop-color="#727272" stop-opacity="0"/>
</linearGradient>
<linearGradient id="paint55_linear_10_714" x1="50" y1="0" x2="50" y2="100" gradientUnits="userSpaceOnUse">
<stop stop-color="#727272"/>
<stop offset="1" stop-color="#727272" stop-opacity="0"/>
</linearGradient>
<linearGradient id="paint56_linear_10_714" x1="50" y1="0" x2="50" y2="100" gradientUnits="userSpaceOnUse">
<stop stop-color="#727272"/>
<stop offset="1" stop-color="#727272" stop-opacity="0"/>
</linearGradient>
<linearGradient id="paint57_linear_10_714" x1="50" y1="0" x2="50" y2="100" gradientUnits="userSpaceOnUse">
<stop stop-color="#727272"/>
<stop offset="1" stop-color="#727272" stop-opacity="0"/>
</linearGradient>
<linearGradient id="paint58_linear_10_714" x1="50" y1="0" x2="50" y2="100" gradientUnits="userSpaceOnUse">
<stop stop-color="#727272"/>
<stop offset="1" stop-color="#727272" stop-opacity="0"/>
</linearGradient>
<linearGradient id="paint59_linear_10_714" x1="50" y1="0" x2="50" y2="100" gradientUnits="userSpaceOnUse">
<stop stop-color="#727272"/>
<stop offset="1" stop-color="#727272" stop-opacity="0"/>
</linearGradient>
<linearGradient id="paint60_linear_10_714" x1="50" y1="0" x2="50" y2="100" gradientUnits="userSpaceOnUse">
<stop stop-color="#727272"/>
<stop offset="1" stop-color="#727272" stop-opacity="0"/>
</linearGradient>
<linearGradient id="paint61_linear_10_714" x1="50" y1="0" x2="50" y2="100" gradientUnits="userSpaceOnUse">
<stop stop-color="#727272"/>
<stop offset="1" stop-color="#727272" stop-opacity="0"/>
</linearGradient>
<linearGradient id="paint62_linear_10_714" x1="50" y1="0" x2="50" y2="100" gradientUnits="userSpaceOnUse">
<stop stop-color="#727272"/>
<stop offset="1" stop-color="#727272" stop-opacity="0"/>
</linearGradient>
<linearGradient id="paint63_linear_10_714" x1="50" y1="0" x2="50" y2="100" gradientUnits="userSpaceOnUse">
<stop stop-color="#727272"/>
<stop offset="1" stop-color="#727272" stop-opacity="0"/>
</linearGradient>
<linearGradient id="paint64_linear_10_714" x1="50" y1="0" x2="50" y2="100" gradientUnits="userSpaceOnUse">
<stop stop-color="#727272"/>
<stop offset="1" stop-color="#727272" stop-opacity="0"/>
</linearGradient>
<linearGradient id="paint65_linear_10_714" x1="50" y1="0" x2="50" y2="100" gradientUnits="userSpaceOnUse">
<stop stop-color="#727272"/>
<stop offset="1" stop-color="#727272" stop-opacity="0"/>
</linearGradient>
<linearGradient id="paint66_linear_10_714" x1="50" y1="0" x2="50" y2="100" gradientUnits="userSpaceOnUse">
<stop stop-color="#727272"/>
<stop offset="1" stop-color="#727272" stop-opacity="0"/>
</linearGradient>
<linearGradient id="paint67_linear_10_714" x1="50" y1="0" x2="50" y2="100" gradientUnits="userSpaceOnUse">
<stop stop-color="#727272"/>
<stop offset="1" stop-color="#727272" stop-opacity="0"/>
</linearGradient>
<linearGradient id="paint68_linear_10_714" x1="50" y1="0" x2="50" y2="100" gradientUnits="userSpaceOnUse">
<stop stop-color="#727272"/>
<stop offset="1" stop-color="#727272" stop-opacity="0"/>
</linearGradient>
<linearGradient id="paint69_linear_10_714" x1="50" y1="0" x2="50" y2="100" gradientUnits="userSpaceOnUse">
<stop stop-color="#727272"/>
<stop offset="1" stop-color="#727272" stop-opacity="0"/>
</linearGradient>
<linearGradient id="paint70_linear_10_714" x1="50" y1="0" x2="50" y2="100" gradientUnits="userSpaceOnUse">
<stop stop-color="#727272"/>
<stop offset="1" stop-color="#727272" stop-opacity="0"/>
</linearGradient>
<linearGradient id="paint71_linear_10_714" x1="50" y1="0" x2="50" y2="100" gradientUnits="userSpaceOnUse">
<stop stop-color="#727272"/>
<stop offset="1" stop-color="#727272" stop-opacity="0"/>
</linearGradient>
<linearGradient id="paint72_linear_10_714" x1="50" y1="0" x2="50" y2="100" gradientUnits="userSpaceOnUse">
<stop stop-color="#727272"/>
<stop offset="1" stop-color="#727272" stop-opacity="0"/>
</linearGradient>
<linearGradient id="paint73_linear_10_714" x1="50" y1="0" x2="50" y2="100" gradientUnits="userSpaceOnUse">
<stop stop-color="#727272"/>
<stop offset="1" stop-color="#727272" stop-opacity="0"/>
</linearGradient>
<linearGradient id="paint74_linear_10_714" x1="50" y1="0" x2="50" y2="100" gradientUnits="userSpaceOnUse">
<stop stop-color="#727272"/>
<stop offset="1" stop-color="#727272" stop-opacity="0"/>
</linearGradient>
<linearGradient id="paint75_linear_10_714" x1="50" y1="0" x2="50" y2="100" gradientUnits="userSpaceOnUse">
<stop stop-color="#727272"/>
<stop offset="1" stop-color="#727272" stop-opacity="0"/>
</linearGradient>
<linearGradient id="paint76_linear_10_714" x1="50" y1="0" x2="50" y2="100" gradientUnits="userSpaceOnUse">
<stop stop-color="#727272"/>
<stop offset="1" stop-color="#727272" stop-opacity="0"/>
</linearGradient>
<linearGradient id="paint77_linear_10_714" x1="50" y1="0" x2="50" y2="100" gradientUnits="userSpaceOnUse">
<stop stop-color="#727272"/>
<stop offset="1" stop-color="#727272" stop-opacity="0"/>
</linearGradient>
<linearGradient id="paint78_linear_10_714" x1="50" y1="0" x2="50" y2="100" gradientUnits="userSpaceOnUse">
<stop stop-color="#727272"/>
<stop offset="1" stop-color="#727272" stop-opacity="0"/>
</linearGradient>
<linearGradient id="paint79_linear_10_714" x1="50" y1="0" x2="50" y2="100" gradientUnits="userSpaceOnUse">
<stop stop-color="#727272"/>
<stop offset="1" stop-color="#727272" stop-opacity="0"/>
</linearGradient>
<linearGradient id="paint80_linear_10_714" x1="50" y1="0" x2="50" y2="100" gradientUnits="userSpaceOnUse">
<stop stop-color="#727272"/>
<stop offset="1" stop-color="#727272" stop-opacity="0"/>
</linearGradient>
<linearGradient id="paint81_linear_10_714" x1="50" y1="0" x2="50" y2="100" gradientUnits="userSpaceOnUse">
<stop stop-color="#727272"/>
<stop offset="1" stop-color="#727272" stop-opacity="0"/>
</linearGradient>
<linearGradient id="paint82_linear_10_714" x1="50" y1="0" x2="50" y2="100" gradientUnits="userSpaceOnUse">
<stop stop-color="#727272"/>
<stop offset="1" stop-color="#727272" stop-opacity="0"/>
</linearGradient>
<linearGradient id="paint83_linear_10_714" x1="50" y1="0" x2="50" y2="100" gradientUnits="userSpaceOnUse">
<stop stop-color="#727272"/>
<stop offset="1" stop-color="#727272" stop-opacity="0"/>
</linearGradient>
<linearGradient id="paint84_linear_10_714" x1="50" y1="0" x2="50" y2="100" gradientUnits="userSpaceOnUse">
<stop stop-color="#727272"/>
<stop offset="1" stop-color="#727272" stop-opacity="0"/>
</linearGradient>
<linearGradient id="paint85_linear_10_714" x1="50" y1="0" x2="50" y2="100" gradientUnits="userSpaceOnUse">
<stop stop-color="#727272"/>
<stop offset="1" stop-color="#727272" stop-opacity="0"/>
</linearGradient>
<linearGradient id="paint86_linear_10_714" x1="50" y1="0" x2="50" y2="100" gradientUnits="userSpaceOnUse">
<stop stop-color="#727272"/>
<stop offset="1" stop-color="#727272" stop-opacity="0"/>
</linearGradient>
<linearGradient id="paint87_linear_10_714" x1="50" y1="0" x2="50" y2="100" gradientUnits="userSpaceOnUse">
<stop stop-color="#727272"/>
<stop offset="1" stop-color="#727272" stop-opacity="0"/>
</linearGradient>
<linearGradient id="paint88_linear_10_714" x1="50" y1="0" x2="50" y2="100" gradientUnits="userSpaceOnUse">
<stop stop-color="#727272"/>
<stop offset="1" stop-color="#727272" stop-opacity="0"/>
</linearGradient>
<linearGradient id="paint89_linear_10_714" x1="50" y1="0" x2="50" y2="100" gradientUnits="userSpaceOnUse">
<stop stop-color="#727272"/>
<stop offset="1" stop-color="#727272" stop-opacity="0"/>
</linearGradient>
<linearGradient id="paint90_linear_10_714" x1="50" y1="0" x2="50" y2="100" gradientUnits="userSpaceOnUse">
<stop stop-color="#727272"/>
<stop offset="1" stop-color="#727272" stop-opacity="0"/>
</linearGradient>
<linearGradient id="paint91_linear_10_714" x1="50" y1="0" x2="50" y2="100" gradientUnits="userSpaceOnUse">
<stop stop-color="#727272"/>
<stop offset="1" stop-color="#727272" stop-opacity="0"/>
</linearGradient>
<linearGradient id="paint92_linear_10_714" x1="50" y1="0" x2="50" y2="100" gradientUnits="userSpaceOnUse">
<stop stop-color="#727272"/>
<stop offset="1" stop-color="#727272" stop-opacity="0"/>
</linearGradient>
<linearGradient id="paint93_linear_10_714" x1="50" y1="0" x2="50" y2="100" gradientUnits="userSpaceOnUse">
<stop stop-color="#727272"/>
<stop offset="1" stop-color="#727272" stop-opacity="0"/>
</linearGradient>
<linearGradient id="paint94_linear_10_714" x1="50" y1="0" x2="50" y2="100" gradientUnits="userSpaceOnUse">
<stop stop-color="#727272"/>
<stop offset="1" stop-color="#727272" stop-opacity="0"/>
</linearGradient>
<linearGradient id="paint95_linear_10_714" x1="50" y1="0" x2="50" y2="100" gradientUnits="userSpaceOnUse">
<stop stop-color="#727272"/>
<stop offset="1" stop-color="#727272" stop-opacity="0"/>
</linearGradient>
<linearGradient id="paint96_linear_10_714" x1="50" y1="0" x2="50" y2="100" gradientUnits="userSpaceOnUse">
<stop stop-color="#727272"/>
<stop offset="1" stop-color="#727272" stop-opacity="0"/>
</linearGradient>
<linearGradient id="paint97_linear_10_714" x1="50" y1="0" x2="50" y2="100" gradientUnits="userSpaceOnUse">
<stop stop-color="#727272"/>
<stop offset="1" stop-color="#727272" stop-opacity="0"/>
</linearGradient>
<linearGradient id="paint98_linear_10_714" x1="50" y1="0" x2="50" y2="100" gradientUnits="userSpaceOnUse">
<stop stop-color="#727272"/>
<stop offset="1" stop-color="#727272" stop-opacity="0"/>
</linearGradient>
<linearGradient id="paint99_linear_10_714" x1="50" y1="0" x2="50" y2="100" gradientUnits="userSpaceOnUse">
<stop stop-color="#727272"/>
<stop offset="1" stop-color="#727272" stop-opacity="0"/>
</linearGradient>
<clipPath id="clip0_10_714">
<rect width="100" height="100" fill="white"/>
</clipPath>
</defs>
</svg>
