<svg width="100" height="100" viewBox="0 0 100 100" fill="none" xmlns="http://www.w3.org/2000/svg">
<g clip-path="url(#clip0_11_239)">
<rect width="100" height="100" fill="#FF8282"/>
<path d="M5 90L10 93.8197L8.09017 100H1.90983L0 93.8197L5 90Z" fill="#FFBEAA"/>
<path d="M5 90L10 86.1803L8.09017 80H1.90983L0 86.1803L5 90Z" fill="#FFBEAA"/>
<path d="M5 90L10 86.1803L8.09017 80H1.90983L0 86.1803L5 90Z" fill="#FFBEAA"/>
<path d="M5 10L10 13.8197L8.09017 20H1.90983L0 13.8197L5 10Z" fill="#FFBEAA"/>
<path d="M5 70L10 66.1803L8.09017 60H1.90983L0 66.1803L5 70Z" fill="#FFBEAA"/>
<path d="M5 30L10 33.8197L8.09017 40H1.90983L0 33.8197L5 30Z" fill="#FFBEAA"/>
<path d="M5 50L10 46.1803L8.09017 40H1.90983L0 46.1803L5 50Z" fill="#FFBEAA"/>
<path d="M5 50L10 53.8197L8.09017 60H1.90983L0 53.8197L5 50Z" fill="#FFBEAA"/>
<path d="M5 30L10 26.1803L8.09017 20H1.90983L0 26.1803L5 30Z" fill="#FFBEAA"/>
<path d="M5 70L10 73.8197L8.09017 80H1.90983L0 73.8197L5 70Z" fill="#FFBEAA"/>
<path d="M5 10L10 6.18034L8.09017 -3.21584e-07H1.90983L0 6.18034L5 10Z" fill="#FFBEAA"/>
<path d="M15 90L20 93.8197L18.0902 100H11.9098L10 93.8197L15 90Z" fill="#FFBEAA"/>
<path d="M15 90L20 86.1803L18.0902 80H11.9098L10 86.1803L15 90Z" fill="#FFBEAA"/>
<path d="M15 90L20 86.1803L18.0902 80H11.9098L10 86.1803L15 90Z" fill="#FFBEAA"/>
<path d="M15 10L20 13.8197L18.0902 20H11.9098L10 13.8197L15 10Z" fill="#FFBEAA"/>
<path d="M15 70L20 66.1803L18.0902 60H11.9098L10 66.1803L15 70Z" fill="#FFBEAA"/>
<path d="M15 30L20 33.8197L18.0902 40H11.9098L10 33.8197L15 30Z" fill="#FFBEAA"/>
<path d="M15 50L20 46.1803L18.0902 40H11.9098L10 46.1803L15 50Z" fill="#FFBEAA"/>
<path d="M15 50L20 53.8197L18.0902 60H11.9098L10 53.8197L15 50Z" fill="#FFBEAA"/>
<path d="M15 30L20 26.1803L18.0902 20H11.9098L10 26.1803L15 30Z" fill="#FFBEAA"/>
<path d="M15 70L20 73.8197L18.0902 80H11.9098L10 73.8197L15 70Z" fill="#FFBEAA"/>
<path d="M15 10L20 6.18034L18.0902 -3.21584e-07H11.9098L10 6.18034L15 10Z" fill="#FFBEAA"/>
<path d="M25 90L30 93.8197L28.0902 100H21.9098L20 93.8197L25 90Z" fill="#FFBEAA"/>
<path d="M25 90L30 86.1803L28.0902 80H21.9098L20 86.1803L25 90Z" fill="#FFBEAA"/>
<path d="M25 90L30 86.1803L28.0902 80H21.9098L20 86.1803L25 90Z" fill="#FFBEAA"/>
<path d="M25 10L30 13.8197L28.0902 20H21.9098L20 13.8197L25 10Z" fill="#FFBEAA"/>
<path d="M25 70L30 66.1803L28.0902 60H21.9098L20 66.1803L25 70Z" fill="#FFBEAA"/>
<path d="M25 30L30 33.8197L28.0902 40H21.9098L20 33.8197L25 30Z" fill="#FFBEAA"/>
<path d="M25 50L30 46.1803L28.0902 40H21.9098L20 46.1803L25 50Z" fill="#FFBEAA"/>
<path d="M25 50L30 53.8197L28.0902 60H21.9098L20 53.8197L25 50Z" fill="#FFBEAA"/>
<path d="M25 30L30 26.1803L28.0902 20H21.9098L20 26.1803L25 30Z" fill="#FFBEAA"/>
<path d="M25 70L30 73.8197L28.0902 80H21.9098L20 73.8197L25 70Z" fill="#FFBEAA"/>
<path d="M25 10L30 6.18034L28.0902 -3.21584e-07H21.9098L20 6.18034L25 10Z" fill="#FFBEAA"/>
<path d="M35 90L40 93.8197L38.0902 100H31.9098L30 93.8197L35 90Z" fill="#FFBEAA"/>
<path d="M35 90L40 86.1803L38.0902 80H31.9098L30 86.1803L35 90Z" fill="#FFBEAA"/>
<path d="M35 90L40 86.1803L38.0902 80H31.9098L30 86.1803L35 90Z" fill="#FFBEAA"/>
<path d="M35 10L40 13.8197L38.0902 20H31.9098L30 13.8197L35 10Z" fill="#FFBEAA"/>
<path d="M35 70L40 66.1803L38.0902 60H31.9098L30 66.1803L35 70Z" fill="#FFBEAA"/>
<path d="M35 30L40 33.8197L38.0902 40H31.9098L30 33.8197L35 30Z" fill="#FFBEAA"/>
<path d="M35 50L40 46.1803L38.0902 40H31.9098L30 46.1803L35 50Z" fill="#FFBEAA"/>
<path d="M35 50L40 53.8197L38.0902 60H31.9098L30 53.8197L35 50Z" fill="#FFBEAA"/>
<path d="M35 30L40 26.1803L38.0902 20H31.9098L30 26.1803L35 30Z" fill="#FFBEAA"/>
<path d="M35 70L40 73.8197L38.0902 80H31.9098L30 73.8197L35 70Z" fill="#FFBEAA"/>
<path d="M35 10L40 6.18034L38.0902 -3.21584e-07H31.9098L30 6.18034L35 10Z" fill="#FFBEAA"/>
<path d="M45 90L50 93.8197L48.0902 100H41.9098L40 93.8197L45 90Z" fill="#FFBEAA"/>
<path d="M45 90L50 86.1803L48.0902 80H41.9098L40 86.1803L45 90Z" fill="#FFBEAA"/>
<path d="M45 90L50 86.1803L48.0902 80H41.9098L40 86.1803L45 90Z" fill="#FFBEAA"/>
<path d="M45 10L50 13.8197L48.0902 20H41.9098L40 13.8197L45 10Z" fill="#FFBEAA"/>
<path d="M45 70L50 66.1803L48.0902 60H41.9098L40 66.1803L45 70Z" fill="#FFBEAA"/>
<path d="M45 30L50 33.8197L48.0902 40H41.9098L40 33.8197L45 30Z" fill="#FFBEAA"/>
<path d="M45 50L50 46.1803L48.0902 40H41.9098L40 46.1803L45 50Z" fill="#FFBEAA"/>
<path d="M45 50L50 53.8197L48.0902 60H41.9098L40 53.8197L45 50Z" fill="#FFBEAA"/>
<path d="M45 30L50 26.1803L48.0902 20H41.9098L40 26.1803L45 30Z" fill="#FFBEAA"/>
<path d="M45 70L50 73.8197L48.0902 80H41.9098L40 73.8197L45 70Z" fill="#FFBEAA"/>
<path d="M45 10L50 6.18034L48.0902 -3.21584e-07H41.9098L40 6.18034L45 10Z" fill="#FFBEAA"/>
<path d="M55 90L60 93.8197L58.0902 100H51.9098L50 93.8197L55 90Z" fill="#FFBEAA"/>
<path d="M55 90L60 86.1803L58.0902 80H51.9098L50 86.1803L55 90Z" fill="#FFBEAA"/>
<path d="M55 90L60 86.1803L58.0902 80H51.9098L50 86.1803L55 90Z" fill="#FFBEAA"/>
<path d="M55 10L60 13.8197L58.0902 20H51.9098L50 13.8197L55 10Z" fill="#FFBEAA"/>
<path d="M55 70L60 66.1803L58.0902 60H51.9098L50 66.1803L55 70Z" fill="#FFBEAA"/>
<path d="M55 30L60 33.8197L58.0902 40H51.9098L50 33.8197L55 30Z" fill="#FFBEAA"/>
<path d="M55 50L60 46.1803L58.0902 40H51.9098L50 46.1803L55 50Z" fill="#FFBEAA"/>
<path d="M55 50L60 53.8197L58.0902 60H51.9098L50 53.8197L55 50Z" fill="#FFBEAA"/>
<path d="M55 30L60 26.1803L58.0902 20H51.9098L50 26.1803L55 30Z" fill="#FFBEAA"/>
<path d="M55 70L60 73.8197L58.0902 80H51.9098L50 73.8197L55 70Z" fill="#FFBEAA"/>
<path d="M55 10L60 6.18034L58.0902 -3.21584e-07H51.9098L50 6.18034L55 10Z" fill="#FFBEAA"/>
<path d="M65 90L70 93.8197L68.0902 100H61.9098L60 93.8197L65 90Z" fill="#FFBEAA"/>
<path d="M65 90L70 86.1803L68.0902 80H61.9098L60 86.1803L65 90Z" fill="#FFBEAA"/>
<path d="M65 90L70 86.1803L68.0902 80H61.9098L60 86.1803L65 90Z" fill="#FFBEAA"/>
<path d="M65 10L70 13.8197L68.0902 20H61.9098L60 13.8197L65 10Z" fill="#FFBEAA"/>
<path d="M65 70L70 66.1803L68.0902 60H61.9098L60 66.1803L65 70Z" fill="#FFBEAA"/>
<path d="M65 30L70 33.8197L68.0902 40H61.9098L60 33.8197L65 30Z" fill="#FFBEAA"/>
<path d="M65 50L70 46.1803L68.0902 40H61.9098L60 46.1803L65 50Z" fill="#FFBEAA"/>
<path d="M65 50L70 53.8197L68.0902 60H61.9098L60 53.8197L65 50Z" fill="#FFBEAA"/>
<path d="M65 30L70 26.1803L68.0902 20H61.9098L60 26.1803L65 30Z" fill="#FFBEAA"/>
<path d="M65 70L70 73.8197L68.0902 80H61.9098L60 73.8197L65 70Z" fill="#FFBEAA"/>
<path d="M65 10L70 6.18034L68.0902 -3.21584e-07H61.9098L60 6.18034L65 10Z" fill="#FFBEAA"/>
<path d="M75 90L80 93.8197L78.0902 100H71.9098L70 93.8197L75 90Z" fill="#FFBEAA"/>
<path d="M75 90L80 86.1803L78.0902 80H71.9098L70 86.1803L75 90Z" fill="#FFBEAA"/>
<path d="M75 90L80 86.1803L78.0902 80H71.9098L70 86.1803L75 90Z" fill="#FFBEAA"/>
<path d="M75 10L80 13.8197L78.0902 20H71.9098L70 13.8197L75 10Z" fill="#FFBEAA"/>
<path d="M75 70L80 66.1803L78.0902 60H71.9098L70 66.1803L75 70Z" fill="#FFBEAA"/>
<path d="M75 30L80 33.8197L78.0902 40H71.9098L70 33.8197L75 30Z" fill="#FFBEAA"/>
<path d="M75 50L80 46.1803L78.0902 40H71.9098L70 46.1803L75 50Z" fill="#FFBEAA"/>
<path d="M75 50L80 53.8197L78.0902 60H71.9098L70 53.8197L75 50Z" fill="#FFBEAA"/>
<path d="M75 30L80 26.1803L78.0902 20H71.9098L70 26.1803L75 30Z" fill="#FFBEAA"/>
<path d="M75 70L80 73.8197L78.0902 80H71.9098L70 73.8197L75 70Z" fill="#FFBEAA"/>
<path d="M75 10L80 6.18034L78.0902 -3.21584e-07H71.9098L70 6.18034L75 10Z" fill="#FFBEAA"/>
<path d="M85 90L90 93.8197L88.0902 100H81.9098L80 93.8197L85 90Z" fill="#FFBEAA"/>
<path d="M85 90L90 86.1803L88.0902 80H81.9098L80 86.1803L85 90Z" fill="#FFBEAA"/>
<path d="M85 90L90 86.1803L88.0902 80H81.9098L80 86.1803L85 90Z" fill="#FFBEAA"/>
<path d="M85 10L90 13.8197L88.0902 20H81.9098L80 13.8197L85 10Z" fill="#FFBEAA"/>
<path d="M85 70L90 66.1803L88.0902 60H81.9098L80 66.1803L85 70Z" fill="#FFBEAA"/>
<path d="M85 30L90 33.8197L88.0902 40H81.9098L80 33.8197L85 30Z" fill="#FFBEAA"/>
<path d="M85 50L90 46.1803L88.0902 40H81.9098L80 46.1803L85 50Z" fill="#FFBEAA"/>
<path d="M85 50L90 53.8197L88.0902 60H81.9098L80 53.8197L85 50Z" fill="#FFBEAA"/>
<path d="M85 30L90 26.1803L88.0902 20H81.9098L80 26.1803L85 30Z" fill="#FFBEAA"/>
<path d="M85 70L90 73.8197L88.0902 80H81.9098L80 73.8197L85 70Z" fill="#FFBEAA"/>
<path d="M85 10L90 6.18034L88.0902 -3.21584e-07H81.9098L80 6.18034L85 10Z" fill="#FFBEAA"/>
<path d="M95 90L100 93.8197L98.0902 100H91.9098L90 93.8197L95 90Z" fill="#FFBEAA"/>
<path d="M95 90L100 86.1803L98.0902 80H91.9098L90 86.1803L95 90Z" fill="#FFBEAA"/>
<path d="M95 90L100 86.1803L98.0902 80H91.9098L90 86.1803L95 90Z" fill="#FFBEAA"/>
<path d="M95 10L100 13.8197L98.0902 20H91.9098L90 13.8197L95 10Z" fill="#FFBEAA"/>
<path d="M95 70L100 66.1803L98.0902 60H91.9098L90 66.1803L95 70Z" fill="#FFBEAA"/>
<path d="M95 30L100 33.8197L98.0902 40H91.9098L90 33.8197L95 30Z" fill="#FFBEAA"/>
<path d="M95 50L100 46.1803L98.0902 40H91.9098L90 46.1803L95 50Z" fill="#FFBEAA"/>
<path d="M95 50L100 53.8197L98.0902 60H91.9098L90 53.8197L95 50Z" fill="#FFBEAA"/>
<path d="M95 30L100 26.1803L98.0902 20H91.9098L90 26.1803L95 30Z" fill="#FFBEAA"/>
<path d="M95 70L100 73.8197L98.0902 80H91.9098L90 73.8197L95 70Z" fill="#FFBEAA"/>
<path d="M95 10L100 6.18034L98.0902 -3.21584e-07H91.9098L90 6.18034L95 10Z" fill="#FFBEAA"/>
</g>
<defs>
<clipPath id="clip0_11_239">
<rect width="100" height="100" fill="white"/>
</clipPath>
</defs>
</svg>
