<svg width="100" height="100" viewBox="0 0 100 100" fill="none" xmlns="http://www.w3.org/2000/svg">
<g clip-path="url(#clip0_11_796)">
<rect width="100" height="100" fill="#D9D9D9"/>
<path d="M5 80L10 85V95L5 100L0 95V85L5 80Z" fill="#727272"/>
<path d="M5 60L10 65V75L5 80L0 75V65L5 60Z" fill="#727272"/>
<path d="M5 40L10 45V55L5 60L0 55V45L5 40Z" fill="#727272"/>
<path d="M5 20L10 25V35L5 40L0 35V25L5 20Z" fill="#727272"/>
<path d="M5 0L10 5V15L5 20L0 15V5L5 0Z" fill="#727272"/>
<path d="M25 90L20 95L10 95L5 90L10 85L20 85L25 90Z" fill="#727272"/>
<path d="M15 60L20 65V75L15 80L10 75V65L15 60Z" fill="#727272"/>
<path d="M25 50L20 55L10 55L5 50L10 45L20 45L25 50Z" fill="#727272"/>
<path d="M15 20L20 25V35L15 40L10 35V25L15 20Z" fill="#727272"/>
<path d="M25 10L20 15L10 15L5 10L10 5L20 5L25 10Z" fill="#727272"/>
<path d="M25 80L30 85V95L25 100L20 95V85L25 80Z" fill="#727272"/>
<path d="M25 60L30 65V75L25 80L20 75V65L25 60Z" fill="#727272"/>
<path d="M25 40L30 45V55L25 60L20 55V45L25 40Z" fill="#727272"/>
<path d="M25 20L30 25V35L25 40L20 35V25L25 20Z" fill="#727272"/>
<path d="M25 0L30 5V15L25 20L20 15V5L25 0Z" fill="#727272"/>
<path d="M35 80L40 85V95L35 100L30 95V85L35 80Z" fill="#727272"/>
<path d="M45 70L40 75L30 75L25 70L30 65L40 65L45 70Z" fill="#727272"/>
<path d="M35 40L40 45V55L35 60L30 55V45L35 40Z" fill="#727272"/>
<path d="M45 30L40 35L30 35L25 30L30 25L40 25L45 30Z" fill="#727272"/>
<path d="M35 0L40 5V15L35 20L30 15V5L35 0Z" fill="#727272"/>
<path d="M65 90L60 95L50 95L45 90L50 85L60 85L65 90Z" fill="#727272"/>
<path d="M55 60L60 65V75L55 80L50 75V65L55 60Z" fill="#727272"/>
<path d="M65 50L60 55L50 55L45 50L50 45L60 45L65 50Z" fill="#727272"/>
<path d="M55 20L60 25V35L55 40L50 35V25L55 20Z" fill="#727272"/>
<path d="M65 10L60 15L50 15L45 10L50 5L60 5L65 10Z" fill="#727272"/>
<path d="M65 80L70 85V95L65 100L60 95V85L65 80Z" fill="#727272"/>
<path d="M65 60L70 65V75L65 80L60 75V65L65 60Z" fill="#727272"/>
<path d="M65 40L70 45V55L65 60L60 55V45L65 40Z" fill="#727272"/>
<path d="M65 20L70 25V35L65 40L60 35V25L65 20Z" fill="#727272"/>
<path d="M65 0L70 5V15L65 20L60 15V5L65 0Z" fill="#727272"/>
<path d="M75 80L80 85V95L75 100L70 95V85L75 80Z" fill="#727272"/>
<path d="M85 70L80 75L70 75L65 70L70 65L80 65L85 70Z" fill="#727272"/>
<path d="M75 40L80 45V55L75 60L70 55V45L75 40Z" fill="#727272"/>
<path d="M85 30L80 35L70 35L65 30L70 25L80 25L85 30Z" fill="#727272"/>
<path d="M75 0L80 5V15L75 20L70 15V5L75 0Z" fill="#727272"/>
<path d="M85 80L90 85V95L85 100L80 95V85L85 80Z" fill="#727272"/>
<path d="M85 60L90 65V75L85 80L80 75V65L85 60Z" fill="#727272"/>
<path d="M85 40L90 45V55L85 60L80 55V45L85 40Z" fill="#727272"/>
<path d="M85 20L90 25V35L85 40L80 35V25L85 20Z" fill="#727272"/>
<path d="M85 0L90 5V15L85 20L80 15V5L85 0Z" fill="#727272"/>
<path d="M105 90L100 95L90 95L85 90L90 85L100 85L105 90Z" fill="#727272"/>
<path d="M95 60L100 65V75L95 80L90 75V65L95 60Z" fill="#727272"/>
<path d="M105 50L100 55L90 55L85 50L90 45L100 45L105 50Z" fill="#727272"/>
<path d="M95 20L100 25V35L95 40L90 35V25L95 20Z" fill="#727272"/>
<path d="M105 10L100 15L90 15L85 10L90 5L100 5L105 10Z" fill="#727272"/>
<path d="M45 80L50 85V95L45 100L40 95V85L45 80Z" fill="#727272"/>
<path d="M45 60L50 65V75L45 80L40 75V65L45 60Z" fill="#727272"/>
<path d="M45 40L50 45V55L45 60L40 55V45L45 40Z" fill="#727272"/>
<path d="M45 20L50 25V35L45 40L40 35V25L45 20Z" fill="#727272"/>
<path d="M45 0L50 5V15L45 20L40 15V5L45 0Z" fill="#727272"/>
</g>
<defs>
<clipPath id="clip0_11_796">
<rect width="100" height="100" fill="white"/>
</clipPath>
</defs>
</svg>
