<svg width="100" height="100" viewBox="0 0 100 100" fill="none" xmlns="http://www.w3.org/2000/svg">
<g clip-path="url(#clip0_14_431)">
<rect width="100" height="100" fill="#AABDFF"/>
<rect y="90" width="10" height="10" fill="#AABDFF"/>
<rect y="80" width="10" height="10" fill="#829DFF"/>
<rect y="70" width="10" height="10" fill="#AABDFF"/>
<rect y="60" width="10" height="10" fill="#829DFF"/>
<rect y="50" width="10" height="10" fill="#AABDFF"/>
<rect y="40" width="10" height="10" fill="#829DFF"/>
<rect y="30" width="10" height="10" fill="#AABDFF"/>
<rect y="20" width="10" height="10" fill="#829DFF"/>
<rect y="10" width="10" height="10" fill="#AABDFF"/>
<rect width="10" height="10" fill="#829DFF"/>
<rect x="10" y="90" width="10" height="10" fill="#829DFF"/>
<rect x="10" y="80" width="10" height="10" fill="#AABDFF"/>
<rect x="10" y="70" width="10" height="10" fill="#829DFF"/>
<rect x="10" y="60" width="10" height="10" fill="#AABDFF"/>
<rect x="10" y="50" width="10" height="10" fill="#829DFF"/>
<rect x="10" y="40" width="10" height="10" fill="#AABDFF"/>
<rect x="10" y="30" width="10" height="10" fill="#829DFF"/>
<rect x="10" y="20" width="10" height="10" fill="#AABDFF"/>
<rect x="10" y="10" width="10" height="10" fill="#829DFF"/>
<rect x="10" width="10" height="10" fill="#AABDFF"/>
<rect x="20" y="90" width="10" height="10" fill="#AABDFF"/>
<rect x="20" y="80" width="10" height="10" fill="#AABDFF"/>
<rect x="20" y="70" width="10" height="10" fill="#AABDFF"/>
<rect x="20" y="60" width="10" height="10" fill="#AABDFF"/>
<rect x="20" y="50" width="10" height="10" fill="#AABDFF"/>
<rect x="20" y="40" width="10" height="10" fill="#AABDFF"/>
<rect x="20" y="30" width="10" height="10" fill="#AABDFF"/>
<rect x="20" y="20" width="10" height="10" fill="#AABDFF"/>
<rect x="20" y="10" width="10" height="10" fill="#AABDFF"/>
<rect x="20" width="10" height="10" fill="#AABDFF"/>
<rect x="30" y="90" width="10" height="10" fill="#829DFF"/>
<rect x="30" y="80" width="10" height="10" fill="#AABDFF"/>
<rect x="30" y="70" width="10" height="10" fill="#829DFF"/>
<rect x="30" y="60" width="10" height="10" fill="#AABDFF"/>
<rect x="30" y="50" width="10" height="10" fill="#829DFF"/>
<rect x="30" y="40" width="10" height="10" fill="#AABDFF"/>
<rect x="30" y="30" width="10" height="10" fill="#829DFF"/>
<rect x="30" y="20" width="10" height="10" fill="#AABDFF"/>
<rect x="30" y="10" width="10" height="10" fill="#829DFF"/>
<rect x="30" width="10" height="10" fill="#AABDFF"/>
<rect x="40" y="90" width="10" height="10" fill="#829DFF"/>
<rect x="40" y="80" width="10" height="10" fill="#AABDFF"/>
<rect x="40" y="70" width="10" height="10" fill="#829DFF"/>
<rect x="40" y="60" width="10" height="10" fill="#AABDFF"/>
<rect x="40" y="50" width="10" height="10" fill="#829DFF"/>
<rect x="40" y="40" width="10" height="10" fill="#AABDFF"/>
<rect x="40" y="30" width="10" height="10" fill="#829DFF"/>
<rect x="40" y="20" width="10" height="10" fill="#AABDFF"/>
<rect x="40" y="10" width="10" height="10" fill="#829DFF"/>
<rect x="40" width="10" height="10" fill="#AABDFF"/>
<rect x="50" y="90" width="10" height="10" fill="#AABDFF"/>
<rect x="50" y="80" width="10" height="10" fill="#829DFF"/>
<rect x="50" y="70" width="10" height="10" fill="#AABDFF"/>
<rect x="50" y="60" width="10" height="10" fill="#829DFF"/>
<rect x="50" y="50" width="10" height="10" fill="#AABDFF"/>
<rect x="50" y="40" width="10" height="10" fill="#829DFF"/>
<rect x="50" y="30" width="10" height="10" fill="#AABDFF"/>
<rect x="50" y="20" width="10" height="10" fill="#829DFF"/>
<rect x="50" y="10" width="10" height="10" fill="#AABDFF"/>
<rect x="50" width="10" height="10" fill="#829DFF"/>
<rect x="60" y="90" width="10" height="10" fill="#AABDFF"/>
<rect x="60" y="80" width="10" height="10" fill="#829DFF"/>
<rect x="60" y="70" width="10" height="10" fill="#AABDFF"/>
<rect x="60" y="60" width="10" height="10" fill="#829DFF"/>
<rect x="60" y="50" width="10" height="10" fill="#AABDFF"/>
<rect x="60" y="40" width="10" height="10" fill="#829DFF"/>
<rect x="60" y="30" width="10" height="10" fill="#AABDFF"/>
<rect x="60" y="20" width="10" height="10" fill="#829DFF"/>
<rect x="60" y="10" width="10" height="10" fill="#AABDFF"/>
<rect x="60" width="10" height="10" fill="#829DFF"/>
<rect x="70" y="90" width="10" height="10" fill="#AABDFF"/>
<rect x="70" y="80" width="10" height="10" fill="#AABDFF"/>
<rect x="70" y="70" width="10" height="10" fill="#AABDFF"/>
<rect x="70" y="60" width="10" height="10" fill="#AABDFF"/>
<rect x="70" y="50" width="10" height="10" fill="#AABDFF"/>
<rect x="70" y="40" width="10" height="10" fill="#AABDFF"/>
<rect x="70" y="30" width="10" height="10" fill="#AABDFF"/>
<rect x="70" y="20" width="10" height="10" fill="#AABDFF"/>
<rect x="70" y="10" width="10" height="10" fill="#AABDFF"/>
<rect x="70" width="10" height="10" fill="#AABDFF"/>
<rect x="80" y="90" width="10" height="10" fill="#AABDFF"/>
<rect x="80" y="80" width="10" height="10" fill="#829DFF"/>
<rect x="80" y="70" width="10" height="10" fill="#AABDFF"/>
<rect x="80" y="60" width="10" height="10" fill="#829DFF"/>
<rect x="80" y="50" width="10" height="10" fill="#AABDFF"/>
<rect x="80" y="40" width="10" height="10" fill="#829DFF"/>
<rect x="80" y="30" width="10" height="10" fill="#AABDFF"/>
<rect x="80" y="20" width="10" height="10" fill="#829DFF"/>
<rect x="80" y="10" width="10" height="10" fill="#AABDFF"/>
<rect x="80" width="10" height="10" fill="#829DFF"/>
<rect x="90" y="90" width="10" height="10" fill="#829DFF"/>
<rect x="90" y="80" width="10" height="10" fill="#AABDFF"/>
<rect x="90" y="70" width="10" height="10" fill="#829DFF"/>
<rect x="90" y="60" width="10" height="10" fill="#AABDFF"/>
<rect x="90" y="50" width="10" height="10" fill="#829DFF"/>
<rect x="90" y="40" width="10" height="10" fill="#AABDFF"/>
<rect x="90" y="30" width="10" height="10" fill="#829DFF"/>
<rect x="90" y="20" width="10" height="10" fill="#AABDFF"/>
<rect x="90" y="10" width="10" height="10" fill="#829DFF"/>
<rect x="90" width="10" height="10" fill="#AABDFF"/>
</g>
<defs>
<clipPath id="clip0_14_431">
<rect width="100" height="100" fill="white"/>
</clipPath>
</defs>
</svg>
