<svg width="100" height="100" viewBox="0 0 100 100" fill="none" xmlns="http://www.w3.org/2000/svg">
<g clip-path="url(#clip0_14_835)">
<rect width="100" height="100" fill="#727272"/>
<path d="M5 90L10 100H0L5 90Z" fill="#D9D9D9"/>
<path d="M5 90L10 80H0L5 90Z" fill="#D9D9D9"/>
<path d="M5 70L10 80H0L5 70Z" fill="#D9D9D9"/>
<path d="M5 60L10 70H0L5 60Z" fill="#D9D9D9"/>
<path d="M5 60L10 50H0L5 60Z" fill="#D9D9D9"/>
<path d="M5 40L10 50H0L5 40Z" fill="#D9D9D9"/>
<path d="M5 30L10 40H0L5 30Z" fill="#D9D9D9"/>
<path d="M5 30L10 20H0L5 30Z" fill="#D9D9D9"/>
<path d="M5 10L10 20H0L5 10Z" fill="#D9D9D9"/>
<path d="M5 0L10 10H0L5 0Z" fill="#D9D9D9"/>
<path d="M15 100L20 90H10L15 100Z" fill="#D9D9D9"/>
<path d="M15 80L20 90H10L15 80Z" fill="#D9D9D9"/>
<path d="M15 70L20 80H10L15 70Z" fill="#D9D9D9"/>
<path d="M15 70L20 60H10L15 70Z" fill="#D9D9D9"/>
<path d="M15 50L20 60H10L15 50Z" fill="#D9D9D9"/>
<path d="M15 40L20 50H10L15 40Z" fill="#D9D9D9"/>
<path d="M15 40L20 30H10L15 40Z" fill="#D9D9D9"/>
<path d="M15 20L20 30H10L15 20Z" fill="#D9D9D9"/>
<path d="M15 10L20 20H10L15 10Z" fill="#D9D9D9"/>
<path d="M15 10L20 -9.53674e-07H10L15 10Z" fill="#D9D9D9"/>
<path d="M25 90L30 100H20L25 90Z" fill="#D9D9D9"/>
<path d="M25 90L30 80H20L25 90Z" fill="#D9D9D9"/>
<path d="M25 70L30 80H20L25 70Z" fill="#D9D9D9"/>
<path d="M25 60L30 70H20L25 60Z" fill="#D9D9D9"/>
<path d="M25 60L30 50H20L25 60Z" fill="#D9D9D9"/>
<path d="M25 40L30 50H20L25 40Z" fill="#D9D9D9"/>
<path d="M25 30L30 40H20L25 30Z" fill="#D9D9D9"/>
<path d="M25 30L30 20H20L25 30Z" fill="#D9D9D9"/>
<path d="M25 10L30 20H20L25 10Z" fill="#D9D9D9"/>
<path d="M25 0L30 10H20L25 0Z" fill="#D9D9D9"/>
<path d="M35 100L40 90H30L35 100Z" fill="#D9D9D9"/>
<path d="M35 80L40 90H30L35 80Z" fill="#D9D9D9"/>
<path d="M35 70L40 80H30L35 70Z" fill="#D9D9D9"/>
<path d="M35 70L40 60H30L35 70Z" fill="#D9D9D9"/>
<path d="M35 50L40 60H30L35 50Z" fill="#D9D9D9"/>
<path d="M35 40L40 50H30L35 40Z" fill="#D9D9D9"/>
<path d="M35 40L40 30H30L35 40Z" fill="#D9D9D9"/>
<path d="M35 20L40 30H30L35 20Z" fill="#D9D9D9"/>
<path d="M35 10L40 20H30L35 10Z" fill="#D9D9D9"/>
<path d="M35 10L40 -9.53674e-07H30L35 10Z" fill="#D9D9D9"/>
<path d="M45 90L50 100H40L45 90Z" fill="#D9D9D9"/>
<path d="M45 90L50 80H40L45 90Z" fill="#D9D9D9"/>
<path d="M45 70L50 80H40L45 70Z" fill="#D9D9D9"/>
<path d="M45 60L50 70H40L45 60Z" fill="#D9D9D9"/>
<path d="M45 60L50 50H40L45 60Z" fill="#D9D9D9"/>
<path d="M45 40L50 50H40L45 40Z" fill="#D9D9D9"/>
<path d="M45 30L50 40H40L45 30Z" fill="#D9D9D9"/>
<path d="M45 30L50 20H40L45 30Z" fill="#D9D9D9"/>
<path d="M45 10L50 20H40L45 10Z" fill="#D9D9D9"/>
<path d="M45 0L50 10H40L45 0Z" fill="#D9D9D9"/>
<path d="M55 100L60 90H50L55 100Z" fill="#D9D9D9"/>
<path d="M55 80L60 90H50L55 80Z" fill="#D9D9D9"/>
<path d="M55 70L60 80H50L55 70Z" fill="#D9D9D9"/>
<path d="M55 70L60 60H50L55 70Z" fill="#D9D9D9"/>
<path d="M55 50L60 60H50L55 50Z" fill="#D9D9D9"/>
<path d="M55 40L60 50H50L55 40Z" fill="#D9D9D9"/>
<path d="M55 40L60 30H50L55 40Z" fill="#D9D9D9"/>
<path d="M55 20L60 30H50L55 20Z" fill="#D9D9D9"/>
<path d="M55 10L60 20H50L55 10Z" fill="#D9D9D9"/>
<path d="M55 10L60 -9.53674e-07H50L55 10Z" fill="#D9D9D9"/>
<path d="M65 90L70 100H60L65 90Z" fill="#D9D9D9"/>
<path d="M65 90L70 80H60L65 90Z" fill="#D9D9D9"/>
<path d="M65 70L70 80H60L65 70Z" fill="#D9D9D9"/>
<path d="M65 60L70 70H60L65 60Z" fill="#D9D9D9"/>
<path d="M65 60L70 50H60L65 60Z" fill="#D9D9D9"/>
<path d="M65 40L70 50H60L65 40Z" fill="#D9D9D9"/>
<path d="M65 30L70 40H60L65 30Z" fill="#D9D9D9"/>
<path d="M65 30L70 20H60L65 30Z" fill="#D9D9D9"/>
<path d="M65 10L70 20H60L65 10Z" fill="#D9D9D9"/>
<path d="M65 0L70 10H60L65 0Z" fill="#D9D9D9"/>
<path d="M75 100L80 90H70L75 100Z" fill="#D9D9D9"/>
<path d="M75 80L80 90H70L75 80Z" fill="#D9D9D9"/>
<path d="M75 70L80 80H70L75 70Z" fill="#D9D9D9"/>
<path d="M75 70L80 60H70L75 70Z" fill="#D9D9D9"/>
<path d="M75 50L80 60H70L75 50Z" fill="#D9D9D9"/>
<path d="M75 40L80 50H70L75 40Z" fill="#D9D9D9"/>
<path d="M75 40L80 30H70L75 40Z" fill="#D9D9D9"/>
<path d="M75 20L80 30H70L75 20Z" fill="#D9D9D9"/>
<path d="M75 10L80 20H70L75 10Z" fill="#D9D9D9"/>
<path d="M75 10L80 -9.53674e-07H70L75 10Z" fill="#D9D9D9"/>
<path d="M85 90L90 100H80L85 90Z" fill="#D9D9D9"/>
<path d="M85 90L90 80H80L85 90Z" fill="#D9D9D9"/>
<path d="M85 70L90 80H80L85 70Z" fill="#D9D9D9"/>
<path d="M85 60L90 70H80L85 60Z" fill="#D9D9D9"/>
<path d="M85 60L90 50H80L85 60Z" fill="#D9D9D9"/>
<path d="M85 40L90 50H80L85 40Z" fill="#D9D9D9"/>
<path d="M85 30L90 40H80L85 30Z" fill="#D9D9D9"/>
<path d="M85 30L90 20H80L85 30Z" fill="#D9D9D9"/>
<path d="M85 10L90 20H80L85 10Z" fill="#D9D9D9"/>
<path d="M85 0L90 10H80L85 0Z" fill="#D9D9D9"/>
<path d="M95 100L100 90H90L95 100Z" fill="#D9D9D9"/>
<path d="M95 80L100 90H90L95 80Z" fill="#D9D9D9"/>
<path d="M95 70L100 80H90L95 70Z" fill="#D9D9D9"/>
<path d="M95 70L100 60H90L95 70Z" fill="#D9D9D9"/>
<path d="M95 50L100 60H90L95 50Z" fill="#D9D9D9"/>
<path d="M95 40L100 50H90L95 40Z" fill="#D9D9D9"/>
<path d="M95 40L100 30H90L95 40Z" fill="#D9D9D9"/>
<path d="M95 20L100 30H90L95 20Z" fill="#D9D9D9"/>
<path d="M95 10L100 20H90L95 10Z" fill="#D9D9D9"/>
<path d="M95 10L100 -9.53674e-07H90L95 10Z" fill="#D9D9D9"/>
</g>
<defs>
<clipPath id="clip0_14_835">
<rect width="100" height="100" fill="white"/>
</clipPath>
</defs>
</svg>
