<svg width="100" height="100" viewBox="0 0 100 100" fill="none" xmlns="http://www.w3.org/2000/svg">
<g clip-path="url(#clip0_14_1645)">
<rect width="100" height="100" fill="#EFEFEF"/>
<path d="M10 95L-1.39079e-06 100L-9.53674e-07 90L10 95Z" fill="#212121"/>
<path d="M10 85L-1.39079e-06 90L-9.53674e-07 80L10 85Z" fill="#212121"/>
<path d="M2.18557e-07 75L10 80L10 70L2.18557e-07 75Z" fill="#212121"/>
<path d="M10 65L-1.39079e-06 70L-9.53674e-07 60L10 65Z" fill="#212121"/>
<path d="M10 55L-1.39079e-06 60L-9.53674e-07 50L10 55Z" fill="#212121"/>
<path d="M10 45L-1.39079e-06 50L-9.53674e-07 40L10 45Z" fill="#212121"/>
<path d="M2.18557e-07 35L10 40L10 30L2.18557e-07 35Z" fill="#212121"/>
<path d="M10 25L-1.39079e-06 30L-9.53674e-07 20L10 25Z" fill="#212121"/>
<path d="M10 15L-1.39079e-06 20L-9.53674e-07 10L10 15Z" fill="#212121"/>
<path d="M10 5L-1.39079e-06 10L-9.53674e-07 -4.37114e-07L10 5Z" fill="#212121"/>
<path d="M20 95L10 100L10 90L20 95Z" fill="#212121"/>
<path d="M10 85L20 90L20 80L10 85Z" fill="#212121"/>
<path d="M10 75L20 80L20 70L10 75Z" fill="#212121"/>
<path d="M10 65L20 70L20 60L10 65Z" fill="#212121"/>
<path d="M20 55L10 60L10 50L20 55Z" fill="#212121"/>
<path d="M10 45L20 50L20 40L10 45Z" fill="#212121"/>
<path d="M10 35L20 40L20 30L10 35Z" fill="#212121"/>
<path d="M10 25L20 30L20 20L10 25Z" fill="#212121"/>
<path d="M20 15L10 20L10 10L20 15Z" fill="#212121"/>
<path d="M10 5L20 10L20 -4.37114e-07L10 5Z" fill="#212121"/>
<path d="M20 95L30 90L30 100L20 95Z" fill="#212121"/>
<path d="M30 85L20 90L20 80L30 85Z" fill="#212121"/>
<path d="M20 75L30 80L30 70L20 75Z" fill="#212121"/>
<path d="M30 65L20 70L20 60L30 65Z" fill="#212121"/>
<path d="M20 55L30 60L30 50L20 55Z" fill="#212121"/>
<path d="M30 45L20 50L20 40L30 45Z" fill="#212121"/>
<path d="M20 35L30 40L30 30L20 35Z" fill="#212121"/>
<path d="M30 25L20 30L20 20L30 25Z" fill="#212121"/>
<path d="M20 15L30 20L30 10L20 15Z" fill="#212121"/>
<path d="M30 5L20 10L20 -4.37114e-07L30 5Z" fill="#212121"/>
<path d="M40 95L30 100L30 90L40 95Z" fill="#212121"/>
<path d="M30 85L40 90L40 80L30 85Z" fill="#212121"/>
<path d="M30 75L40 80L40 70L30 75Z" fill="#212121"/>
<path d="M30 65L40 70L40 60L30 65Z" fill="#212121"/>
<path d="M40 55L30 60L30 50L40 55Z" fill="#212121"/>
<path d="M30 45L40 50L40 40L30 45Z" fill="#212121"/>
<path d="M30 35L40 40L40 30L30 35Z" fill="#212121"/>
<path d="M30 25L40 30L40 20L30 25Z" fill="#212121"/>
<path d="M40 15L30 20L30 10L40 15Z" fill="#212121"/>
<path d="M30 5L40 10L40 -4.37114e-07L30 5Z" fill="#212121"/>
<path d="M50 95L40 100L40 90L50 95Z" fill="#212121"/>
<path d="M50 85L40 90L40 80L50 85Z" fill="#212121"/>
<path d="M40 75L50 80L50 70L40 75Z" fill="#212121"/>
<path d="M50 65L40 70L40 60L50 65Z" fill="#212121"/>
<path d="M50 55L40 60L40 50L50 55Z" fill="#212121"/>
<path d="M50 45L40 50L40 40L50 45Z" fill="#212121"/>
<path d="M40 35L50 40L50 30L40 35Z" fill="#212121"/>
<path d="M50 25L40 30L40 20L50 25Z" fill="#212121"/>
<path d="M50 15L40 20L40 10L50 15Z" fill="#212121"/>
<path d="M50 5L40 10L40 -4.37114e-07L50 5Z" fill="#212121"/>
<path d="M50 95L60 100L60 90L50 95Z" fill="#212121"/>
<path d="M50 85L60 90L60 80L50 85Z" fill="#212121"/>
<path d="M50 75L60 80L60 70L50 75Z" fill="#212121"/>
<path d="M50 65L60 70L60 60L50 65Z" fill="#212121"/>
<path d="M50 55L60 60L60 50L50 55Z" fill="#212121"/>
<path d="M50 45L60 50L60 40L50 45Z" fill="#212121"/>
<path d="M50 35L60 40L60 30L50 35Z" fill="#212121"/>
<path d="M50 25L60 30L60 20L50 25Z" fill="#212121"/>
<path d="M50 15L60 20L60 10L50 15Z" fill="#212121"/>
<path d="M50 5L60 10L60 -4.37114e-07L50 5Z" fill="#212121"/>
<path d="M70 95L60 100L60 90L70 95Z" fill="#212121"/>
<path d="M70 85L60 90L60 80L70 85Z" fill="#212121"/>
<path d="M60 75L70 80L70 70L60 75Z" fill="#212121"/>
<path d="M70 65L60 70L60 60L70 65Z" fill="#212121"/>
<path d="M70 55L60 60L60 50L70 55Z" fill="#212121"/>
<path d="M70 45L60 50L60 40L70 45Z" fill="#212121"/>
<path d="M60 35L70 40L70 30L60 35Z" fill="#212121"/>
<path d="M70 25L60 30L60 20L70 25Z" fill="#212121"/>
<path d="M70 15L60 20L60 10L70 15Z" fill="#212121"/>
<path d="M70 5L60 10L60 -4.37114e-07L70 5Z" fill="#212121"/>
<path d="M80 95L70 100L70 90L80 95Z" fill="#212121"/>
<path d="M70 85L80 90L80 80L70 85Z" fill="#212121"/>
<path d="M70 75L80 80L80 70L70 75Z" fill="#212121"/>
<path d="M70 65L80 70L80 60L70 65Z" fill="#212121"/>
<path d="M80 55L70 60L70 50L80 55Z" fill="#212121"/>
<path d="M70 45L80 50L80 40L70 45Z" fill="#212121"/>
<path d="M70 35L80 40L80 30L70 35Z" fill="#212121"/>
<path d="M70 25L80 30L80 20L70 25Z" fill="#212121"/>
<path d="M80 15L70 20L70 10L80 15Z" fill="#212121"/>
<path d="M70 5L80 10L80 -4.37114e-07L70 5Z" fill="#212121"/>
<path d="M80 95L90 100L90 90L80 95Z" fill="#212121"/>
<path d="M90 85L80 90L80 80L90 85Z" fill="#212121"/>
<path d="M80 75L90 80L90 70L80 75Z" fill="#212121"/>
<path d="M90 65L80 70L80 60L90 65Z" fill="#212121"/>
<path d="M80 55L90 60L90 50L80 55Z" fill="#212121"/>
<path d="M90 45L80 50L80 40L90 45Z" fill="#212121"/>
<path d="M80 35L90 40L90 30L80 35Z" fill="#212121"/>
<path d="M90 25L80 30L80 20L90 25Z" fill="#212121"/>
<path d="M80 15L90 20L90 10L80 15Z" fill="#212121"/>
<path d="M90 5L80 10L80 -4.37114e-07L90 5Z" fill="#212121"/>
<path d="M100 95L90 100L90 90L100 95Z" fill="#212121"/>
<path d="M90 85L100 90L100 80L90 85Z" fill="#212121"/>
<path d="M90 75L100 80L100 70L90 75Z" fill="#212121"/>
<path d="M90 65L100 70L100 60L90 65Z" fill="#212121"/>
<path d="M100 55L90 60L90 50L100 55Z" fill="#212121"/>
<path d="M90 45L100 50L100 40L90 45Z" fill="#212121"/>
<path d="M90 35L100 40L100 30L90 35Z" fill="#212121"/>
<path d="M90 25L100 30L100 20L90 25Z" fill="#212121"/>
<path d="M100 15L90 20L90 10L100 15Z" fill="#212121"/>
<path d="M90 5L100 10L100 -4.37114e-07L90 5Z" fill="#212121"/>
</g>
<defs>
<clipPath id="clip0_14_1645">
<rect width="100" height="100" fill="white"/>
</clipPath>
</defs>
</svg>
