<svg width="100" height="100" viewBox="0 0 100 100" fill="none" xmlns="http://www.w3.org/2000/svg">
<g clip-path="url(#clip0_105_2)">
<rect width="100" height="100" rx="2" fill="#092934"/>
<path d="M18.9116 95.3472C13.9648 92.4912 9.4996 89.1372 5.51585 85.2853C1.59359 81.6628 -1.57569 77.4082 -3.99198 72.5213C-4.1029 69.3535 -3.06335 65.2009 -0.873317 60.0637C1.40071 54.7809 4.24848 49.3444 7.66997 43.7542C8.76197 41.8628 10.8356 41.7991 13.891 43.5631C15.2004 44.3191 16.0396 45.3856 16.4086 46.7626C16.923 48.2235 17.1157 49.4017 16.9867 50.2972C16.5365 57.7969 16.7134 64.8826 17.5172 71.5544C18.405 78.0806 21.5405 82.8978 26.9237 86.0058C30.7065 88.1898 34.1429 88.6218 37.2328 87.3019C40.4682 86.0661 42.8839 84.066 44.4799 81.3016C46.6639 77.5188 46.9422 73.5087 45.3149 69.2713C43.6875 65.034 41.5592 60.9923 38.9299 57.1464C36.0321 52.7575 33.3751 48.1197 30.9588 43.2328C28.6265 38.2005 27.3269 32.8914 27.0601 27.3056C26.7932 21.7198 28.3398 16.0171 31.6998 10.1974C35.1438 4.2322 39.6842 0.0639737 45.321 -2.3073C51.1874 -4.74007 57.5569 -5.52439 64.4296 -4.66027C71.3863 -3.94163 78.1382 -1.69232 84.6854 2.08768C89.6321 4.94368 93.8791 8.17165 97.4264 11.7716C101.203 15.31 103.598 18.0505 104.61 19.9929C104.934 22.1198 104.169 25.4609 102.315 30.0162C100.69 34.51 98.3662 39.3758 95.3422 44.6135C94.4182 46.2139 92.5013 46.1741 89.5914 44.4941C88.573 43.9061 87.6918 42.9124 86.9479 41.5129C86.2879 39.968 86.0225 38.7478 86.1515 37.8523C87.6201 30.9406 87.6667 25.1478 86.2914 20.474C85.0615 15.8841 82.7007 12.5812 79.2089 10.5652C76.0081 8.71722 72.5102 8.05566 68.7153 8.58055C65.066 9.18945 62.2753 11.1671 60.3433 14.5134C58.6633 17.4232 58.5642 20.9548 60.0461 25.1082C61.7574 29.2001 63.9892 33.3985 66.7415 37.7034C73.488 48.1941 77.5541 56.9433 78.9399 63.9511C80.3257 70.9588 78.7506 78.391 74.2146 86.2476C68.5866 95.9956 61.0905 101.755 51.7263 103.526C42.3622 105.298 31.4239 102.571 18.9116 95.3472Z" fill="white"/>
</g>
<defs>
<clipPath id="clip0_105_2">
<rect width="100" height="100" rx="2" fill="white"/>
</clipPath>
</defs>
</svg>
